<?xml version="1.0" standalone="no"?>
<!DOCTYPE svg PUBLIC "-//W3C//DTD SVG 20010904//EN"
 "http://www.w3.org/TR/2001/REC-SVG-20010904/DTD/svg10.dtd">
<svg version="1.0" xmlns="http://www.w3.org/2000/svg"
 width="600.000000pt" height="600.000000pt" viewBox="0 0 600.000000 600.000000"
 preserveAspectRatio="xMidYMid meet">
<g transform="translate(0.000000,600.000000) scale(0.100000,-0.100000)"
fill="#000000" stroke="none">
<path d="M2665 5370 c-341 -52 -654 -172 -930 -358 -157 -106 -234 -169 -370
-306 -265 -267 -451 -572 -566 -931 -60 -186 -109 -469 -109 -627 0 -57 3 -69
20 -78 13 -7 26 -7 38 -1 15 8 20 33 29 158 44 546 252 1012 628 1402 185 193
380 335 628 457 329 161 668 234 1041 221 593 -20 1119 -257 1531 -689 376
-394 586 -878 621 -1431 6 -90 10 -110 26 -118 12 -6 25 -6 38 1 17 9 20 21
20 78 0 95 -26 297 -55 427 -111 495 -392 957 -774 1277 -354 295 -765 473
-1221 528 -136 16 -457 11 -595 -10z m550 -10 c33 -5 80 -11 105 -13 25 -1 50
-5 55 -8 6 -3 23 -6 38 -7 15 -1 37 -6 47 -12 10 -5 30 -10 45 -10 16 0 24 -4
19 -11 -5 -8 -1 -8 14 0 26 14 42 14 22 1 -11 -8 -8 -10 15 -7 17 2 53 -6 81
-19 29 -13 54 -21 56 -18 3 2 22 -5 44 -15 21 -11 42 -17 46 -14 5 2 8 -1 8
-7 0 -6 6 -10 13 -9 19 3 48 -12 41 -22 -3 -5 2 -6 11 -2 10 3 20 2 24 -4 3
-5 22 -14 41 -19 20 -6 34 -16 32 -24 -2 -8 3 -10 13 -6 21 8 92 -37 92 -58 0
-9 -5 -15 -11 -13 -6 3 -10 9 -9 15 2 7 -4 9 -14 5 -11 -4 -14 -3 -9 5 4 8 2
10 -7 6 -8 -3 -18 0 -22 5 -3 6 -11 8 -17 5 -7 -5 -8 -2 -3 6 6 10 4 12 -8 7
-9 -3 -26 5 -43 21 -15 15 -24 21 -20 14 7 -11 4 -12 -11 -3 -11 6 -23 7 -27
4 -3 -3 -6 -1 -6 6 0 8 -6 11 -16 7 -8 -3 -12 -2 -9 4 3 5 -6 12 -20 16 -14 3
-25 10 -25 16 0 5 -4 7 -9 4 -11 -7 -112 24 -107 33 2 3 -10 7 -27 8 -52 2
-97 15 -91 24 3 5 -1 6 -8 4 -8 -3 -33 1 -56 9 -24 9 -40 11 -37 6 9 -14 -7
-12 -30 4 -25 16 -93 24 -350 41 -96 6 -242 -1 -440 -21 -27 -3 -60 -6 -72 -7
-11 -1 -19 -6 -16 -11 3 -4 -5 -5 -17 -1 -15 5 -20 4 -16 -4 4 -7 -2 -11 -16
-11 -50 -1 -76 -5 -71 -12 2 -5 -7 -8 -22 -8 -14 0 -33 -4 -43 -9 -9 -5 -53
-21 -97 -36 -143 -47 -176 -61 -169 -67 3 -4 -4 -4 -17 -1 -14 4 -20 2 -16 -4
4 -6 0 -14 -9 -17 -8 -3 -12 -2 -9 4 3 6 1 10 -5 10 -6 0 -13 -7 -16 -15 -4
-8 -10 -12 -15 -9 -5 3 -9 0 -9 -7 0 -8 -4 -8 -15 1 -13 11 -15 27 -2 18 3 -1
14 5 25 15 11 10 29 20 39 22 10 2 19 4 21 4 1 1 3 0 5 -1 2 -2 11 5 21 15 22
21 44 23 26 2 -11 -13 -10 -14 4 -9 9 3 16 13 16 21 0 8 5 11 10 8 6 -3 10 -2
10 4 0 6 19 15 43 22 23 6 47 15 53 20 6 5 13 7 16 4 3 -3 24 1 47 10 23 8 48
14 54 12 7 -1 11 4 9 11 -2 9 4 12 17 7 11 -3 22 -1 26 5 3 6 10 8 15 5 5 -3
32 1 60 9 27 8 50 12 50 9 0 -3 6 0 14 6 8 7 20 11 28 10 7 -1 38 1 68 4 30 4
77 9 103 11 27 2 51 7 54 10 9 9 324 6 388 -4z m-1225 -262 c0 -6 -7 -7 -16
-4 -8 3 -13 2 -10 -3 3 -5 -9 -16 -28 -25 -39 -18 -50 -20 -41 -6 4 6 -1 7
-11 3 -11 -4 -13 -8 -6 -11 19 -6 14 -22 -8 -22 -11 0 -20 -4 -20 -8 0 -12
-70 -43 -81 -36 -6 3 3 17 18 30 25 22 28 22 35 6 6 -15 7 -14 7 4 1 15 19 30
68 56 64 34 93 39 93 16z m2131 -26 c17 4 19 -24 3 -29 -16 -5 -46 26 -38 39
4 7 9 6 14 -1 4 -7 13 -11 21 -9z m29 -37 c-7 -9 -15 -13 -18 -10 -3 2 1 11 8
20 7 9 15 13 18 10 3 -2 -1 -11 -8 -20z m70 -20 c11 -3 20 -11 20 -16 0 -6 -5
-7 -12 -3 -7 4 -8 3 -4 -5 6 -9 12 -9 24 1 10 7 14 8 10 4 -4 -5 14 -20 40
-33 25 -13 51 -29 57 -35 7 -8 6 -9 -2 -4 -7 4 -13 3 -13 -3 0 -5 13 -12 30
-16 16 -4 36 -14 42 -24 7 -10 21 -20 32 -24 11 -5 16 -13 12 -23 -3 -9 -2
-12 4 -9 6 4 26 -7 45 -24 19 -16 30 -33 25 -36 -5 -3 -15 3 -22 14 -11 18
-13 18 -26 3 -7 -9 -11 -11 -7 -4 3 6 2 12 -3 12 -6 0 -27 17 -48 38 -21 20
-34 30 -30 22 5 -8 -3 -4 -16 10 -14 14 -23 29 -20 34 2 5 -1 7 -9 4 -8 -3
-20 1 -27 9 -8 7 -17 11 -20 9 -4 -2 -13 2 -20 10 -7 8 -9 14 -5 14 4 0 -8 8
-27 19 -19 10 -39 16 -44 13 -5 -3 -6 0 -2 7 4 6 0 14 -11 18 -34 12 -44 24
-32 39 9 11 13 11 25 -1 8 -7 23 -17 34 -20z m-2456 -46 c-3 -5 -10 -6 -16 -3
-6 4 -8 2 -5 -3 9 -14 -19 -37 -34 -27 -7 4 -9 3 -6 -3 4 -6 -4 -18 -18 -27
-23 -15 -29 -14 -26 6 0 4 -6 5 -15 1 -13 -5 -13 -7 -2 -15 18 -12 -57 -79
-80 -71 -11 5 -13 3 -7 -7 5 -9 4 -11 -3 -6 -7 4 -12 1 -12 -9 0 -9 -4 -14 -9
-11 -5 3 -11 -3 -14 -14 -3 -11 -11 -20 -18 -20 -10 0 -10 3 -1 12 7 7 12 16
12 22 0 5 -6 1 -14 -9 -8 -11 -12 -24 -9 -31 5 -13 -44 -47 -57 -39 -5 3 -7
-3 -5 -14 2 -11 -3 -25 -11 -32 -8 -6 -14 -9 -14 -6 0 4 -10 -4 -23 -16 -13
-12 -21 -26 -19 -31 3 -5 -2 -7 -11 -3 -9 3 -19 2 -22 -3 -4 -6 -1 -10 5 -10
6 0 1 -10 -11 -22 -11 -13 -41 -49 -66 -80 -24 -32 -48 -58 -54 -58 -5 0 -9
-5 -9 -10 0 -19 -52 -90 -61 -84 -5 3 -8 2 -7 -3 2 -4 -7 -25 -19 -46 -12 -20
-22 -38 -20 -40 1 -1 -8 -16 -21 -34 -12 -17 -22 -36 -22 -43 0 -6 -5 -8 -11
-4 -7 4 -10 1 -7 -7 3 -8 -6 -31 -19 -51 -12 -21 -23 -40 -23 -44 0 -3 -8 -18
-19 -32 -10 -15 -17 -35 -15 -45 2 -13 -2 -17 -12 -13 -11 4 -14 1 -9 -13 3
-11 -1 -26 -12 -37 -10 -10 -16 -18 -14 -18 5 -1 -20 -90 -30 -102 -5 -6 -10
-23 -11 -37 -1 -14 -6 -23 -10 -21 -4 3 -8 -6 -8 -19 0 -41 -12 -87 -21 -81
-5 3 -6 -1 -3 -9 3 -8 -1 -21 -8 -28 -8 -7 -12 -25 -10 -40 2 -14 -1 -30 -7
-33 -6 -4 -11 -12 -11 -17 0 -6 4 -7 10 -4 6 4 6 -5 -1 -22 -6 -15 -13 -46
-15 -68 -2 -21 -6 -49 -8 -62 -4 -20 -12 -111 -20 -224 -3 -42 -13 -62 -27
-53 -6 3 -7 24 -4 47 6 41 14 150 15 195 0 13 4 21 9 18 4 -3 6 6 3 20 -3 14
0 49 7 78 6 28 13 67 14 86 2 20 6 40 9 45 3 6 9 29 13 53 4 23 10 40 14 38 4
-3 8 3 9 12 1 9 3 28 5 43 2 14 6 29 9 35 3 5 8 23 12 39 4 17 15 38 23 48 10
11 12 17 4 17 -6 0 0 17 14 40 14 22 25 43 24 47 -2 16 14 53 21 48 4 -3 8 1
7 8 -1 42 4 59 17 54 10 -4 14 0 11 12 -2 10 10 39 26 64 16 26 29 52 29 58 0
5 5 7 10 4 6 -3 10 4 10 16 0 22 70 133 99 157 9 8 10 10 3 7 -11 -6 -11 -3 0
14 7 12 16 21 20 21 5 0 8 7 8 16 0 10 6 14 14 11 9 -4 13 -1 10 7 -3 7 6 24
20 39 13 14 22 28 19 31 -3 3 4 4 15 1 12 -2 25 1 28 7 4 7 2 8 -4 4 -7 -4
-12 -3 -12 3 0 5 5 13 10 16 6 4 8 10 5 15 -8 12 33 33 47 24 7 -5 8 -3 4 5
-5 7 3 25 20 43 67 72 96 98 105 92 5 -3 8 -2 7 3 -3 12 55 73 70 73 7 0 10 5
6 12 -4 6 -3 9 2 5 5 -3 18 1 29 9 10 8 15 14 9 14 -5 0 6 9 24 20 18 11 39
17 45 13 8 -5 8 -2 -1 9 -10 13 -8 18 13 32 18 12 25 13 26 4 0 -7 5 -3 11 10
6 12 17 22 24 22 8 0 19 9 26 19 9 15 16 17 25 9 7 -5 10 -14 7 -19z m2770
-214 c14 0 21 -18 9 -22 -11 -4 -53 30 -53 42 0 4 7 1 16 -6 9 -8 22 -14 28
-14z m46 -29 c0 -8 5 -18 12 -22 7 -5 9 -2 4 7 -5 8 12 -8 37 -36 25 -27 45
-58 44 -67 -2 -25 -8 -22 -36 12 -13 16 -27 28 -31 25 -7 -5 -17 10 -18 28 0
5 -10 17 -22 27 -12 11 -19 24 -15 29 9 16 25 13 25 -3z m140 -137 c14 -11 18
-17 10 -13 -8 5 -4 -6 10 -23 14 -17 28 -28 33 -26 4 2 6 1 5 -4 -1 -4 3 -18
10 -29 6 -12 8 -24 4 -28 -3 -4 1 -4 11 -1 12 5 20 -1 29 -21 7 -15 25 -40 40
-55 16 -15 28 -35 28 -44 0 -9 4 -14 9 -11 5 3 12 -6 15 -20 4 -15 18 -43 32
-63 13 -19 24 -41 24 -47 0 -6 7 -17 15 -24 8 -7 12 -17 9 -22 -4 -6 -10 -5
-16 3 -8 11 -9 11 -5 -1 2 -8 10 -14 17 -12 7 2 17 -2 21 -9 9 -15 1 -39 -13
-39 -6 0 -7 7 -4 16 3 8 2 13 -3 10 -13 -8 -56 80 -60 127 -1 4 -6 7 -12 7 -5
0 -7 -5 -3 -12 4 -7 3 -8 -5 -4 -6 4 -9 12 -5 17 3 6 -4 21 -16 34 -13 14 -19
29 -15 36 5 8 4 10 -3 5 -7 -4 -20 7 -33 28 -12 20 -25 36 -31 36 -5 0 -6 5
-3 10 3 6 1 10 -5 10 -6 0 -8 5 -5 10 3 6 -1 10 -9 10 -9 0 -16 6 -16 14 0 7
-7 19 -15 26 -8 7 -12 16 -9 21 3 5 0 8 -7 7 -6 -2 -14 3 -17 11 -3 9 0 11 8
6 9 -5 11 -4 6 4 -6 9 -11 9 -21 1 -10 -8 -15 -8 -21 1 -5 8 -3 10 7 5 8 -4 6
-1 -5 8 -18 14 -32 66 -18 66 4 0 18 -10 32 -21z m340 -529 c0 -9 6 -22 12
-28 7 -7 13 -18 14 -25 0 -7 2 -20 2 -30 1 -10 6 -16 10 -13 11 7 56 -110 49
-128 -3 -8 1 -17 9 -20 8 -3 14 -19 14 -36 0 -22 4 -29 13 -24 6 4 9 4 5 0 -3
-4 1 -31 9 -59 9 -29 16 -59 16 -67 0 -8 5 -18 11 -22 8 -5 7 -11 -2 -20 -17
-17 -15 -29 5 -21 12 5 15 2 10 -9 -3 -9 1 -38 9 -65 8 -26 14 -61 13 -78 -1
-16 2 -38 6 -47 4 -10 5 -36 3 -57 -2 -22 0 -37 4 -35 4 3 6 -16 3 -41 -3 -30
-1 -44 6 -39 7 4 9 -11 7 -43 -2 -35 -7 -48 -18 -48 -12 0 -15 14 -16 60 -1
33 -5 80 -8 105 -3 25 -8 68 -11 95 -2 28 -7 62 -10 76 -3 14 -7 41 -9 60 -3
19 -5 35 -5 37 -1 1 -1 4 -1 7 -1 3 -7 23 -15 45 -8 23 -10 38 -5 35 18 -11
11 15 -10 37 -15 16 -17 25 -9 40 7 14 7 18 -3 16 -7 -2 -13 6 -13 17 -1 11
-3 25 -7 30 -16 28 -39 116 -32 126 4 7 3 9 -4 6 -6 -4 -25 29 -48 83 -20 50
-41 93 -46 96 -5 3 -4 12 3 20 10 12 14 12 25 -3 7 -10 14 -25 14 -33z"/>
<path d="M2708 5333 c7 -3 16 -2 19 1 4 3 -2 6 -13 5 -11 0 -14 -3 -6 -6z"/>
<path d="M1920 5080 c-8 -5 -10 -10 -5 -10 6 0 17 5 25 10 8 5 11 10 5 10 -5
0 -17 -5 -25 -10z"/>
<path d="M4301 4941 c-10 -6 -9 -10 3 -14 8 -3 18 -2 21 3 8 13 -9 20 -24 11z"/>
<path d="M4385 4870 c-3 -6 1 -7 9 -4 18 7 21 14 7 14 -6 0 -13 -4 -16 -10z"/>
<path d="M1400 4689 c0 -11 4 -18 10 -14 5 3 7 12 3 20 -7 21 -13 19 -13 -6z"/>
<path d="M1274 4558 c0 -10 1 -18 3 -18 1 0 7 8 12 18 7 13 6 19 -2 19 -7 0
-13 -9 -13 -19z"/>
<path d="M1075 4294 c-9 -15 -12 -23 -6 -20 11 7 35 46 28 46 -3 0 -12 -12
-22 -26z"/>
<path d="M1049 4233 c-13 -16 -12 -17 4 -4 9 7 17 15 17 17 0 8 -8 3 -21 -13z"/>
<path d="M1003 4163 c4 -3 1 -13 -6 -22 -11 -14 -10 -14 5 -2 16 12 16 31 1
31 -4 0 -3 -3 0 -7z"/>
<path d="M885 3909 c-4 -6 -5 -12 -2 -15 2 -3 7 2 10 11 7 17 1 20 -8 4z"/>
<path d="M4600 4690 c0 -5 5 -10 11 -10 5 0 7 5 4 10 -3 6 -8 10 -11 10 -2 0
-4 -4 -4 -10z"/>
<path d="M4853 4385 c0 -8 4 -12 9 -9 5 3 6 10 3 15 -9 13 -12 11 -12 -6z"/>
<path d="M4906 4307 c3 -10 9 -15 12 -12 3 3 0 11 -7 18 -10 9 -11 8 -5 -6z"/>
<path d="M5030 4080 c0 -5 5 -10 11 -10 5 0 7 5 4 10 -3 6 -8 10 -11 10 -2 0
-4 -4 -4 -10z"/>
<path d="M5268 3135 c-3 -14 -1 -25 3 -25 5 0 9 11 9 25 0 14 -2 25 -4 25 -2
0 -6 -11 -8 -25z"/>
<path d="M4330 5016 c0 -2 7 -7 16 -10 8 -3 12 -2 9 4 -6 10 -25 14 -25 6z"/>
<path d="M2811 4961 c-11 -19 9 -57 96 -186 41 -59 41 -60 25 -88 -18 -30
-451 -672 -555 -822 -271 -393 -421 -589 -528 -689 l-94 -88 -13 58 c-7 32
-14 59 -16 61 -1 1 -19 -3 -40 -9 -31 -10 -36 -15 -32 -32 3 -12 16 -70 28
-129 l22 -108 41 7 c22 3 41 7 42 8 1 0 -2 17 -6 36 -6 33 -4 37 34 62 23 15
70 54 105 88 36 33 65 60 66 60 0 0 16 -56 35 -125 l34 -125 945 0 946 0 34
125 c18 69 35 125 37 125 2 0 17 -15 32 -32 16 -18 61 -58 101 -88 69 -53 71
-56 67 -91 -5 -36 -4 -37 35 -43 23 -4 42 -5 43 -4 1 2 12 51 24 109 12 58 24
114 27 126 4 16 0 22 -19 27 -14 3 -32 9 -40 12 -12 4 -18 -8 -29 -56 l-14
-62 -94 89 c-139 131 -401 492 -923 1271 l-177 263 28 42 c14 23 41 63 58 88
51 74 63 102 53 122 -6 9 -21 17 -34 17 -20 0 -37 -18 -85 -90 -33 -49 -60
-94 -60 -100 0 -5 -4 -10 -10 -10 -5 0 -10 4 -10 9 0 5 -27 50 -60 100 -49 74
-65 91 -85 91 -13 0 -29 -8 -34 -19z m51 -15 c6 4 8 3 5 -3 -3 -5 5 -22 19
-38 23 -27 33 -65 17 -65 -13 1 -45 49 -39 59 3 4 -1 17 -10 27 -14 18 -15 18
-4 -3 13 -28 5 -30 -10 -3 -6 11 -8 26 -4 32 6 9 9 9 12 0 2 -7 9 -9 14 -6z
m299 -14 c-6 -2 -9 -8 -5 -13 3 -5 1 -9 -5 -9 -6 0 -19 -20 -30 -44 -11 -24
-27 -46 -36 -49 -9 -4 -12 -13 -8 -23 4 -12 3 -15 -5 -10 -7 4 -12 2 -12 -4 0
-6 -5 -8 -12 -4 -7 4 -8 3 -4 -5 4 -6 2 -19 -5 -27 -9 -11 -9 -20 0 -41 6 -14
9 -28 6 -31 -2 -3 4 -11 15 -19 18 -13 18 -15 2 -32 -19 -20 -36 -17 -28 6 3
8 2 12 -3 9 -5 -3 -15 1 -22 10 -12 14 -14 14 -26 -3 -8 -10 -17 -16 -21 -14
-4 3 -9 -4 -11 -15 -2 -10 -9 -23 -17 -27 -8 -4 -14 -14 -14 -22 0 -7 -9 -17
-20 -20 -11 -3 -20 -11 -20 -16 0 -6 6 -7 13 -4 6 4 3 -1 -7 -9 -11 -9 -16
-16 -11 -16 5 0 -1 -10 -12 -22 -11 -13 -31 -42 -45 -65 -20 -34 -27 -40 -37
-30 -11 10 -11 8 -2 -10 10 -19 9 -22 -4 -17 -11 4 -13 2 -9 -9 3 -8 -1 -19
-8 -23 -12 -8 -17 -10 -37 -13 -5 0 -12 -9 -15 -18 -6 -15 -5 -15 13 1 15 14
21 15 27 4 4 -7 4 -10 -1 -6 -5 5 -16 -10 -26 -32 -10 -22 -21 -40 -24 -40 -3
0 -1 9 5 19 7 14 7 22 0 26 -6 4 -10 3 -9 -2 4 -16 -13 -63 -23 -63 -10 0 -7
39 5 55 30 40 54 85 49 91 -4 4 -1 4 6 0 7 -4 12 -1 12 8 0 9 4 16 8 16 5 0
14 11 20 25 13 28 34 34 26 8 -5 -15 -4 -15 4 -4 7 10 7 21 0 34 -5 11 -6 17
-1 14 5 -3 15 3 22 15 10 16 10 19 -1 13 -7 -5 -4 1 7 12 13 14 24 17 32 11 8
-7 10 -3 6 12 -5 20 28 81 69 127 35 38 38 82 10 136 -14 26 -29 47 -34 47 -5
0 -6 5 -3 10 5 8 12 7 23 -2 14 -12 14 -10 3 12 -11 24 -11 24 3 6 9 -11 16
-28 16 -37 0 -10 5 -21 10 -24 18 -11 70 -24 69 -17 -4 23 3 33 17 28 12 -5
14 -1 9 15 -5 16 -4 19 5 14 9 -6 11 -4 6 4 -12 18 25 56 37 39 6 -9 7 -7 3 6
-4 12 0 24 14 33 11 8 18 19 15 24 -4 5 -1 9 5 9 6 0 8 5 4 13 -5 7 -1 6 10
-3 11 -8 14 -16 7 -18z m37 -585 c316 -477 450 -669 463 -662 5 3 7 0 4 -7 -3
-7 61 -103 141 -212 l145 -199 -33 -118 -33 -118 -178 -3 c-98 -2 -180 -2
-182 0 -6 6 23 103 35 117 6 8 8 20 4 26 -4 7 -3 9 3 6 6 -4 21 5 34 19 13 14
41 35 61 47 54 30 49 50 -24 92 -128 74 -253 183 -358 311 -83 100 -175 246
-211 334 -56 135 -75 133 -148 -16 -134 -276 -336 -502 -565 -633 -34 -20 -56
-39 -56 -49 1 -9 24 -33 52 -52 63 -43 105 -101 114 -157 l7 -43 -179 0 -179
0 -33 120 -32 119 98 133 c183 249 690 984 805 1170 23 37 44 67 47 67 3 0 92
-132 198 -292z m-122 257 c-6 -15 -4 -15 11 -3 9 8 14 9 10 2 -4 -6 -4 -13 0
-15 11 -4 53 -65 53 -75 0 -4 -5 -1 -10 7 -5 8 -10 10 -10 4 0 -16 25 -35 35
-26 4 4 5 -3 2 -16 -3 -12 -1 -20 4 -16 5 3 9 0 9 -6 0 -6 5 -8 10 -5 6 3 10
-1 10 -9 0 -8 7 -22 16 -30 9 -9 13 -24 9 -35 -3 -11 -1 -22 4 -26 7 -3 8 0 5
9 -11 29 5 16 36 -29 17 -25 29 -49 25 -54 -3 -5 0 -13 6 -17 8 -4 9 -3 5 4
-11 19 5 14 20 -5 7 -10 14 -29 14 -43 0 -20 2 -22 10 -10 8 13 10 13 10 -2 0
-9 10 -24 22 -32 12 -9 19 -16 14 -16 -5 0 -1 -10 10 -22 10 -12 13 -18 7 -14
-7 4 -13 2 -13 -3 0 -10 14 -15 33 -12 5 1 6 -3 3 -8 -4 -5 -2 -11 3 -13 4 -1
12 -14 16 -27 5 -18 4 -22 -5 -16 -9 5 -11 4 -6 -4 4 -6 11 -9 15 -7 13 8 51
-51 45 -68 -9 -24 -21 -19 -38 14 -8 17 -10 27 -4 24 7 -4 8 -2 4 4 -4 7 -14
12 -22 12 -13 0 -18 15 -17 48 1 7 -1 11 -5 8 -3 -3 -11 2 -19 12 -8 9 -11 11
-7 3 4 -9 3 -12 -4 -7 -6 4 -8 14 -5 23 4 11 3 14 -5 9 -8 -5 -10 -2 -6 9 4
10 2 15 -6 13 -6 -2 -20 13 -31 31 -10 19 -25 39 -33 43 -9 5 -13 15 -10 22 3
8 -5 21 -18 30 -12 9 -19 16 -14 16 5 0 1 9 -8 19 -10 11 -15 25 -10 32 4 7 3
10 -3 6 -13 -8 -68 57 -68 80 0 10 -5 17 -11 16 -6 -1 -20 14 -30 35 -11 20
-26 43 -34 52 -12 11 -12 12 -1 5 12 -9 12 -7 1 12 -8 12 -17 20 -21 18 -9 -6
-27 37 -22 53 3 6 9 12 15 12 6 0 7 -7 4 -16z m-416 -417 c0 -5 -6 -5 -12 -1
-8 5 -7 0 2 -11 14 -17 13 -18 -2 -12 -12 4 -15 2 -12 -7 3 -8 0 -17 -7 -22
-7 -4 -10 -3 -5 4 3 6 2 13 -3 16 -5 4 -3 19 6 37 12 23 18 28 24 18 5 -8 9
-18 9 -22z m-42 -63 c1 -14 -2 -23 -8 -19 -6 3 -10 0 -10 -8 0 -7 -9 -23 -19
-34 -11 -12 -17 -25 -13 -29 4 -5 0 -3 -9 4 -14 10 -17 10 -16 0 1 -32 -4 -49
-13 -43 -6 3 -7 -1 -4 -9 3 -9 1 -16 -4 -16 -6 0 -21 -18 -33 -40 -13 -23 -28
-39 -36 -36 -8 3 -10 -1 -6 -11 5 -12 3 -14 -7 -8 -10 6 -12 4 -7 -8 3 -9 2
-19 -4 -22 -5 -4 -7 -10 -5 -14 3 -3 -4 -7 -15 -7 -24 0 -24 18 1 41 10 9 18
20 17 24 -4 12 40 60 48 53 5 -4 6 1 2 10 -3 10 0 19 9 22 9 3 12 11 8 17 -4
7 -3 9 4 5 6 -3 15 8 22 29 6 19 25 44 41 56 16 11 27 25 24 30 -6 8 14 38 25
39 3 0 7 -11 8 -26z m-43 -24 c-3 -5 -12 -10 -18 -10 -7 0 -6 4 3 10 19 12 23
12 15 0z m455 -69 c10 -19 10 -22 -1 -15 -7 4 -3 -6 9 -23 12 -17 22 -38 22
-47 0 -9 5 -16 10 -16 6 0 9 -3 9 -7 -4 -22 2 -43 10 -39 5 4 17 -14 26 -39
10 -24 21 -43 24 -40 4 2 15 -9 25 -26 9 -16 14 -29 10 -29 -4 0 0 -6 11 -13
12 -9 15 -19 10 -28 -5 -8 -5 -11 0 -7 11 10 57 -41 49 -54 -4 -7 -2 -8 5 -4
7 5 17 -5 26 -26 8 -18 14 -30 15 -26 0 4 10 -3 23 -15 13 -12 51 -48 85 -80
34 -32 62 -65 62 -73 0 -8 4 -13 9 -9 13 8 77 -32 95 -60 8 -13 28 -26 44 -30
16 -3 40 -16 52 -27 l23 -22 -24 -10 c-13 -6 -28 -17 -33 -24 -4 -8 -22 -20
-40 -28 -17 -7 -25 -13 -18 -14 8 0 6 -6 -5 -18 -18 -19 -33 -19 -33 -1 0 6 5
7 12 3 7 -4 8 -3 4 5 -4 6 -12 9 -17 6 -20 -13 -7 9 26 42 19 19 35 39 35 44
0 5 -16 19 -35 30 -38 23 -45 32 -17 23 13 -5 14 -4 3 4 -8 6 -21 8 -29 4 -11
-4 -13 -1 -7 9 5 8 4 11 0 6 -5 -4 -15 3 -22 15 -7 13 -12 17 -13 10 0 -10 -3
-10 -14 0 -8 7 -12 16 -9 21 2 4 1 7 -4 6 -20 -4 -24 2 -12 18 13 15 12 15 -8
5 -17 -9 -22 -9 -26 3 -3 7 -1 16 6 19 7 3 1 3 -12 0 -17 -5 -21 -3 -16 6 5 8
4 11 -3 6 -6 -3 -13 -2 -16 3 -3 5 1 11 9 15 17 6 20 26 4 26 -5 0 -7 -4 -4
-10 3 -5 2 -10 -4 -10 -5 0 -13 5 -16 11 -4 6 -14 8 -22 5 -13 -5 -13 -3 1 19
9 14 12 24 7 23 -5 -2 -17 6 -26 17 -16 19 -16 19 -2 -6 9 -15 13 -29 10 -33
-11 -11 -42 25 -36 42 4 14 3 14 -5 3 -8 -11 -12 -10 -21 6 -5 11 -7 24 -3 28
4 5 2 5 -4 2 -13 -7 -47 30 -39 43 4 6 -5 14 -19 20 -29 11 -36 22 -8 14 16
-5 16 -5 0 6 -12 7 -16 20 -14 41 3 28 2 29 -14 14 -9 -8 -20 -12 -25 -8 -16
16 29 -64 58 -102 82 -107 234 -252 332 -317 l64 -42 -34 -23 c-20 -13 -44
-44 -59 -77 -26 -55 -34 -102 -16 -91 6 3 10 15 10 25 0 28 22 71 34 67 6 -2
11 -13 10 -25 0 -12 3 -19 7 -16 4 2 5 -5 2 -16 -3 -11 -9 -18 -13 -15 -8 5
-10 -35 -4 -73 l4 -22 187 2 c183 3 188 4 199 25 6 13 13 21 16 18 2 -3 3 8 0
24 -2 16 1 32 7 35 6 4 11 20 11 37 0 16 4 29 9 29 5 0 12 7 15 16 3 8 2 12
-4 9 -14 -8 -12 5 4 35 12 21 12 27 -5 48 -15 20 -16 28 -7 45 l11 21 8 -23
c5 -13 14 -19 20 -15 8 4 8 1 1 -13 -9 -16 -8 -19 8 -19 11 1 19 -3 19 -7 -1
-5 11 -21 25 -36 15 -15 23 -31 19 -35 -4 -4 1 -4 10 0 12 4 17 2 15 -7 -2 -8
3 -13 10 -11 8 1 11 -2 7 -8 -3 -5 -1 -10 6 -10 16 0 89 -72 83 -82 -9 -15
-25 -8 -22 9 2 10 -4 18 -12 18 -43 3 -75 28 -72 56 1 4 -10 10 -24 13 -17 5
-24 12 -20 21 9 25 -9 25 -38 0 -17 -15 -26 -30 -23 -39 4 -10 1 -13 -9 -9
-17 6 -18 -8 -1 -26 10 -12 9 -13 -7 -7 -15 5 -17 4 -7 -8 8 -9 8 -16 2 -20
-6 -4 -7 -14 -4 -23 5 -12 3 -14 -6 -8 -10 5 -11 2 -7 -12 3 -11 -1 -34 -10
-52 -14 -29 -20 -32 -45 -27 -16 3 -29 2 -29 -2 0 -4 -19 -6 -42 -5 -143 8
-268 7 -268 -2 0 -5 -5 -3 -10 5 -7 11 -10 11 -10 2 0 -7 -4 -11 -9 -7 -14 8
-1079 7 -1093 -1 -6 -4 -9 -3 -6 2 4 5 -68 9 -171 8 l-177 0 -12 38 c-7 21
-12 46 -12 57 0 11 -4 22 -9 25 -8 5 -25 79 -24 103 0 7 -3 10 -9 7 -9 -6 -48
32 -48 47 0 4 12 20 28 36 15 15 27 32 27 38 1 5 6 9 13 8 7 -2 12 3 12 11 0
8 3 16 8 18 4 2 20 22 36 45 16 24 32 40 37 38 4 -3 11 0 15 6 5 8 3 9 -6 4
-8 -5 -11 -3 -8 6 3 8 10 13 16 12 6 -2 9 4 6 12 -4 8 -1 15 5 15 6 0 11 7 11
16 0 11 6 15 18 12 13 -4 17 1 17 21 0 19 5 26 18 25 13 -2 15 1 7 11 -8 9 -6
14 5 19 9 3 13 11 9 17 -5 8 -3 9 6 4 10 -6 12 -4 6 10 -5 15 -4 16 9 5 13
-11 14 -10 10 3 -4 8 -1 18 4 22 6 3 8 11 5 17 -4 6 -2 8 4 4 6 -3 13 3 17 14
4 11 11 17 17 14 7 -5 9 -1 5 9 -6 17 15 41 27 30 4 -4 4 0 1 9 -4 11 1 20 14
27 14 8 18 17 14 29 -6 14 -4 15 9 5 8 -7 18 -10 21 -6 4 3 7 2 7 -4 0 -17
-62 -83 -71 -77 -5 3 -6 -1 -4 -8 3 -8 -2 -22 -11 -33 -8 -11 -12 -14 -8 -6 5
10 3 12 -5 7 -7 -5 -10 -14 -7 -22 3 -7 0 -16 -6 -20 -7 -5 -8 -2 -3 6 5 8 4
11 -3 6 -6 -4 -9 -13 -6 -20 3 -7 -13 -35 -36 -62 -22 -27 -40 -54 -40 -61 0
-7 -5 -13 -11 -13 -5 0 -7 -6 -3 -12 5 -8 0 -7 -11 2 -16 14 -17 13 -11 -6 5
-17 -1 -28 -24 -48 -18 -14 -28 -26 -25 -26 4 0 2 -7 -5 -15 -7 -9 -19 -14
-27 -11 -11 4 -11 1 -3 -14 9 -16 8 -18 -6 -13 -12 4 -15 3 -10 -5 4 -8 1 -12
-10 -12 -10 0 -15 -3 -11 -6 3 -4 -1 -20 -9 -36 -8 -16 -12 -34 -8 -41 4 -7
-3 -3 -16 8 l-23 20 19 -29 c10 -16 20 -47 21 -69 2 -22 10 -51 19 -65 8 -13
13 -26 10 -29 -3 -4 -1 -12 5 -19 6 -8 9 -21 5 -29 -3 -9 -2 -14 3 -11 4 3 13
-5 20 -17 11 -22 15 -22 188 -19 105 1 181 6 189 13 17 14 14 109 -3 109 -7 0
-14 5 -14 10 -1 6 -2 14 -3 19 -3 19 -77 91 -88 85 -7 -4 -8 -3 -4 4 4 8 0 12
-12 12 -27 0 -33 9 -19 31 8 13 14 15 24 7 10 -8 12 -7 8 5 -4 10 1 17 14 22
11 3 44 24 72 45 29 22 55 37 59 35 4 -2 19 11 35 30 15 19 31 32 36 29 5 -3
9 1 9 7 0 22 71 88 88 82 10 -4 13 -2 8 5 -4 7 -3 12 3 12 6 0 21 18 33 40 15
25 30 40 43 40 17 0 17 2 5 10 -11 7 -11 10 -2 10 7 0 10 5 7 10 -3 6 -2 10 4
10 5 0 13 9 16 20 4 11 11 18 16 15 5 -4 9 3 9 15 0 12 4 19 9 15 5 -3 13 5
17 17 3 13 15 35 25 49 10 14 15 30 11 35 -4 4 2 2 12 -6 18 -14 19 -14 7 9
-8 15 -9 21 -2 17 7 -5 14 4 17 23 4 17 13 36 20 42 8 6 14 20 14 30 0 10 10
25 23 35 14 10 16 14 5 11 -26 -9 -10 23 16 33 12 4 22 7 22 6 1 0 7 -12 14
-25z m505 -81 c3 -11 11 -20 18 -20 8 0 8 -3 -1 -12 -7 -7 -12 -17 -12 -22 0
-6 4 -4 10 4 5 8 11 12 13 10 52 -68 63 -87 60 -97 -2 -6 1 -14 6 -18 17 -10
13 -28 -4 -21 -22 8 -18 -1 4 -14 14 -7 22 -7 27 2 5 7 3 8 -6 3 -9 -5 -11 -4
-6 4 4 6 12 9 17 5 5 -3 7 -9 4 -14 -3 -5 4 -14 15 -20 11 -6 20 -19 20 -29 0
-10 12 -27 27 -37 17 -11 23 -19 15 -22 -8 -2 0 -15 20 -34 18 -16 26 -27 18
-22 -8 4 -12 4 -8 -1 4 -4 2 -15 -5 -23 -9 -13 -9 -14 1 -8 7 4 12 2 12 -4 0
-7 -6 -10 -12 -7 -7 2 -13 12 -13 23 0 10 -5 19 -12 19 -6 0 -15 4 -20 9 -5 5
-3 6 5 2 6 -4 12 -2 12 3 0 6 -7 11 -15 11 -8 0 -15 7 -15 15 0 8 -3 15 -7 15
-12 0 -43 58 -39 73 1 6 1 9 -1 5 -6 -11 -23 -10 -23 2 0 5 -11 20 -25 34 -14
14 -25 32 -25 41 0 8 -5 15 -10 15 -6 0 -15 10 -21 23 -23 50 -41 79 -54 84
-11 4 -12 9 -2 24 15 24 24 24 32 -1z m-375 -224 c0 -3 -4 -8 -10 -11 -5 -3
-10 -1 -10 4 0 6 5 11 10 11 6 0 10 -2 10 -4z m651 -177 c3 -14 12 -23 20 -21
8 2 11 0 7 -4 -5 -4 1 -13 12 -21 19 -14 17 -49 -3 -36 -6 3 -7 1 -3 -6 6 -9
11 -9 21 -1 9 8 16 3 25 -21 8 -17 24 -42 37 -55 25 -25 29 -39 12 -50 -12 -7
-26 4 -31 26 -2 8 -16 28 -33 44 -16 16 -23 25 -15 21 16 -8 -24 41 -49 61 -8
6 -11 16 -7 23 4 7 2 10 -5 9 -8 -2 -13 9 -14 30 -1 37 16 38 26 1z m-1841
-341 c0 -5 -6 -8 -12 -8 -7 0 -25 -15 -40 -34 -26 -32 -68 -46 -68 -23 0 5 6
7 14 4 16 -6 40 16 29 26 -3 4 2 9 11 13 9 3 13 10 10 15 -5 8 9 13 29 10 4 0
6 2 6 7 -3 19 2 25 11 12 5 -8 10 -18 10 -22z m-262 -40 c3 -43 7 -58 15 -58
4 0 5 -4 2 -10 -3 -5 4 -12 17 -14 36 -7 57 -4 62 10 3 8 12 11 20 8 8 -3 12
-12 9 -20 -3 -8 -9 -11 -14 -8 -16 10 -69 -59 -67 -86 2 -17 -2 -25 -12 -25
-9 0 -15 9 -14 23 0 12 -3 22 -8 22 -4 0 -8 16 -8 35 0 19 -5 35 -11 35 -6 0
-9 6 -6 13 2 6 0 22 -4 35 -6 15 -5 22 4 23 9 0 9 2 -1 6 -6 2 -10 9 -6 14 8
13 20 11 22 -3z m182 -2 c0 -3 -4 -8 -10 -11 -5 -3 -10 -1 -10 4 0 6 5 11 10
11 6 0 10 -2 10 -4z m2424 -23 c-1 -15 -8 -29 -14 -31 -8 -3 -8 -8 1 -18 9
-11 9 -14 -1 -14 -7 0 -10 -6 -7 -14 10 -25 -6 -28 -21 -4 -10 18 -12 18 -6 3
13 -36 16 -93 5 -99 -18 -12 -34 4 -20 20 9 11 9 14 0 14 -7 0 -10 4 -7 9 3 5
-1 14 -9 21 -8 7 -12 17 -8 23 3 5 1 7 -4 4 -6 -4 -16 0 -22 7 -13 16 1 32 19
21 17 -10 59 6 53 21 -3 8 3 17 12 20 12 5 13 9 5 14 -15 9 -4 30 14 30 8 0
12 -10 10 -27z m-2436 -22 c1 -1 -3 -7 -10 -15 -9 -10 -17 -11 -25 -4 -23 19
-3 29 35 19z"/>
<path d="M2984 4749 c-3 -6 -1 -16 6 -22 10 -9 11 -9 5 2 -4 8 -2 17 6 22 9 6
10 9 2 9 -6 0 -15 -5 -19 -11z"/>
<path d="M2896 4575 c-9 -26 -7 -32 5 -12 6 10 9 21 6 23 -2 3 -7 -2 -11 -11z"/>
<path d="M3001 4583 c-1 -29 -120 -214 -430 -668 -34 -49 -82 -121 -108 -160
-109 -161 -215 -312 -309 -437 l-43 -57 31 -111 c25 -91 33 -108 44 -99 15 12
20 34 6 25 -10 -6 -43 102 -47 152 -3 43 22 91 37 70 7 -9 8 -8 4 5 -8 25 4
43 16 26 6 -10 7 -7 3 10 -5 17 -4 22 5 16 9 -6 11 -4 5 5 -6 10 -4 12 10 6
16 -6 16 -4 4 11 -12 15 -12 16 4 10 12 -4 16 -3 11 4 -3 6 3 19 15 30 12 11
19 25 15 30 -3 5 0 8 8 7 8 -2 12 5 10 17 l-3 20 17 -20 c15 -17 16 -18 10 -2
-3 10 1 31 9 47 17 34 37 50 29 23 -5 -17 -5 -17 6 0 6 9 8 22 5 27 -4 6 -3
10 2 9 20 -3 27 2 13 11 -11 7 -11 10 -2 10 7 0 10 5 7 10 -3 6 -2 10 4 10 5
0 12 -6 15 -12 4 -7 5 -4 2 8 -2 13 8 34 25 54 16 18 29 39 29 46 0 8 4 14 8
14 5 0 14 12 20 26 7 14 17 22 22 19 6 -4 7 1 3 11 -4 12 -3 15 5 10 8 -5 12
0 12 14 0 14 4 19 12 14 7 -5 9 -2 5 9 -4 11 -2 14 9 10 10 -4 15 -1 13 8 -4
20 22 69 33 63 5 -3 8 -2 7 3 -3 20 2 27 12 13 8 -12 9 -10 4 9 -5 18 -4 22 6
16 9 -6 11 -4 6 8 -4 10 3 21 19 32 15 10 23 22 20 31 -5 12 5 18 25 16 4 -1
5 6 3 16 -3 9 6 29 19 43 14 14 28 35 31 47 4 13 12 19 18 16 7 -5 9 -1 5 9
-4 11 -1 17 8 17 7 0 16 13 20 30 4 16 11 33 17 36 7 5 8 2 3 -6 -5 -9 -4 -11
4 -6 7 4 10 13 8 19 -4 12 3 23 34 55 9 9 24 32 33 50 9 17 21 32 27 32 6 0 8
7 5 16 -3 8 -2 12 4 9 6 -3 10 3 10 14 0 12 3 21 8 21 4 0 14 15 22 33 14 30
15 18 20 -183 7 -255 10 -248 11 17 0 158 2 192 14 197 8 3 15 11 15 18 0 9
-3 9 -11 -2 -8 -12 -10 -12 -8 5 1 11 -3 31 -9 45 -11 25 -11 25 -11 -7z"/>
<path d="M3050 4501 c0 -6 4 -13 10 -16 6 -3 7 1 4 9 -7 18 -14 21 -14 7z"/>
<path d="M3210 4261 c0 -6 4 -13 10 -16 6 -3 7 1 4 9 -7 18 -14 21 -14 7z"/>
<path d="M3280 4101 c0 -6 4 -13 10 -16 6 -3 7 1 4 9 -7 18 -14 21 -14 7z"/>
<path d="M3326 4088 c3 -5 10 -6 15 -3 13 9 11 12 -6 12 -8 0 -12 -4 -9 -9z"/>
<path d="M3365 4039 c-4 -6 -5 -12 -2 -15 2 -3 7 2 10 11 7 17 1 20 -8 4z"/>
<path d="M2706 4013 c-6 -14 -5 -15 5 -6 7 7 10 15 7 18 -3 3 -9 -2 -12 -12z"/>
<path d="M3144 3904 c9 -8 16 -20 16 -26 0 -6 3 -9 6 -6 8 9 -14 48 -27 48 -6
0 -3 -7 5 -16z"/>
<path d="M2611 3854 c0 -11 3 -14 6 -6 3 7 2 16 -1 19 -3 4 -6 -2 -5 -13z"/>
<path d="M2545 3789 c-4 -6 -5 -12 -2 -15 2 -3 7 2 10 11 7 17 1 20 -8 4z"/>
<path d="M3300 3646 c0 -2 8 -10 18 -17 15 -13 16 -12 3 4 -13 16 -21 21 -21
13z"/>
<path d="M3336 3637 c3 -10 9 -15 12 -12 3 3 0 11 -7 18 -10 9 -11 8 -5 -6z"/>
<path d="M2565 3590 c-3 -6 1 -7 9 -4 18 7 21 14 7 14 -6 0 -13 -4 -16 -10z"/>
<path d="M2376 3533 c-6 -14 -5 -15 5 -6 7 7 10 15 7 18 -3 3 -9 -2 -12 -12z"/>
<path d="M2486 3502 c-2 -4 4 -8 14 -8 10 0 16 4 14 8 -3 4 -9 8 -14 8 -5 0
-11 -4 -14 -8z"/>
<path d="M3710 3351 c0 -5 5 -13 10 -16 6 -3 10 -2 10 4 0 5 -4 13 -10 16 -5
3 -10 2 -10 -4z"/>
<path d="M2295 3329 c-4 -6 -5 -12 -2 -15 2 -3 7 2 10 11 7 17 1 20 -8 4z"/>
<path d="M3863 3301 c0 -11 5 -18 9 -15 4 3 5 11 1 19 -7 21 -12 19 -10 -4z"/>
<path d="M3746 3294 c-3 -9 -2 -22 2 -31 6 -10 9 -5 9 16 0 35 -2 38 -11 15z"/>
<path d="M2290 3241 c0 -6 4 -13 10 -16 6 -3 7 1 4 9 -7 18 -14 21 -14 7z"/>
<path d="M3696 3233 c-6 -14 -5 -15 5 -6 7 7 10 15 7 18 -3 3 -9 -2 -12 -12z"/>
<path d="M3191 4404 c0 -11 3 -14 6 -6 3 7 2 16 -1 19 -3 4 -6 -2 -5 -13z"/>
<path d="M3309 4233 c-13 -16 -12 -17 4 -4 16 13 21 21 13 21 -2 0 -10 -8 -17
-17z"/>
<path d="M3344 4172 c4 -3 14 -7 22 -8 9 -1 13 0 10 4 -4 3 -14 7 -22 8 -9 1
-13 0 -10 -4z"/>
<path d="M3483 3979 c-2 -23 3 -25 10 -4 4 8 3 16 -1 19 -4 3 -9 -4 -9 -15z"/>
<path d="M2974 3814 c-8 -19 -17 -48 -21 -65 -5 -25 -8 -28 -22 -17 -14 12
-14 11 -3 -4 9 -11 11 -25 6 -40 -4 -13 -7 -29 -6 -35 2 -7 -1 -13 -6 -13 -9
0 -20 -25 -26 -55 -1 -5 -6 -23 -10 -39 l-9 -29 -13 26 c-13 24 -10 62 5 53 4
-3 7 3 8 12 4 46 8 67 14 72 11 8 15 38 6 42 -5 2 -30 -51 -56 -117 -66 -167
-109 -250 -209 -398 l-86 -129 -11 44 c-12 47 -44 98 -85 136 -18 17 -21 25
-12 29 36 15 178 131 257 212 85 86 200 240 188 251 -3 3 -8 -1 -10 -8 -3 -6
-10 -9 -16 -5 -6 4 -8 0 -4 -10 7 -20 -8 -23 -17 -4 -3 6 -3 2 0 -11 4 -15 1
-22 -7 -20 -7 2 -13 -4 -14 -12 0 -8 -6 -14 -13 -12 -7 1 -11 -1 -11 -5 3 -21
-2 -33 -16 -33 -8 0 -15 -7 -15 -15 0 -9 -7 -18 -15 -21 -8 -3 -17 -14 -20
-25 -4 -11 -11 -16 -17 -13 -6 4 -9 3 -5 -2 7 -12 -12 -36 -45 -58 -28 -18
-48 -7 -24 13 11 9 15 9 20 -1 3 -7 4 -4 3 7 -1 12 3 19 11 17 8 -1 11 2 7 9
-5 7 -17 1 -36 -17 -20 -19 -26 -31 -19 -38 15 -15 12 -26 -6 -26 -8 0 -13 -4
-10 -9 4 -5 -7 -15 -24 -23 -16 -7 -30 -17 -30 -21 0 -5 5 -5 12 -1 7 4 8 3 4
-5 -4 -6 -12 -9 -17 -5 -6 3 -18 -3 -27 -13 -9 -11 -25 -22 -35 -26 -11 -4
-15 -12 -11 -19 5 -9 2 -8 -9 1 -16 12 -17 12 -10 -5 6 -17 5 -17 -10 -6 -21
18 -37 8 -29 -20 3 -14 1 -19 -6 -14 -6 3 -3 -12 5 -34 9 -22 20 -40 26 -40 5
0 3 8 -4 18 -11 15 -11 15 1 4 8 -7 15 -16 15 -20 0 -4 12 -20 27 -35 16 -17
24 -35 21 -44 -5 -12 -3 -14 7 -8 9 6 12 4 8 -6 -3 -8 2 -29 11 -48 l17 -32
12 25 c6 14 16 26 22 26 5 0 10 7 10 15 0 9 6 12 15 8 9 -3 15 -2 14 3 -1 5
-1 18 0 29 l2 20 15 -20 c16 -20 16 -19 9 4 -5 18 -4 22 5 16 9 -5 11 -4 6 4
-4 6 -2 18 4 26 7 8 9 15 6 15 -7 0 10 23 36 47 9 9 15 20 12 25 -3 4 0 8 5 8
6 0 10 6 9 13 -2 6 2 11 9 10 8 -2 10 4 6 14 -4 10 -2 14 4 10 6 -4 10 3 9 16
-1 13 4 21 12 19 7 -1 12 3 11 10 -3 16 11 51 23 59 5 3 11 16 13 30 3 13 10
37 17 53 l11 28 14 -25 c11 -23 11 -32 -4 -69 -9 -24 -23 -49 -30 -56 -7 -7
-13 -18 -13 -23 0 -6 -4 -7 -10 -4 -5 3 -7 0 -4 -8 3 -8 -1 -21 -9 -28 -7 -8
-12 -20 -9 -28 3 -8 0 -11 -7 -7 -6 4 -11 4 -10 -1 1 -4 1 -15 0 -23 -1 -13
-2 -13 -11 0 -8 12 -10 10 -10 -8 0 -28 -30 -95 -38 -87 -3 3 0 11 6 17 7 7
12 17 12 22 0 6 -7 1 -15 -11 -9 -12 -15 -26 -14 -30 3 -19 -2 -34 -10 -29 -5
3 -14 -8 -20 -24 -5 -17 -17 -30 -25 -30 -9 0 -16 -7 -16 -16 0 -16 -19 -40
-33 -41 -5 -1 -12 -5 -15 -9 -4 -4 -1 -3 7 1 11 6 13 4 8 -8 -4 -11 -1 -17 8
-17 8 0 15 -3 15 -7 0 -5 84 -7 188 -7 103 1 279 2 392 3 139 1 200 4 190 11
-9 6 -159 10 -390 10 -438 -1 -398 -2 -384 8 6 4 27 27 46 52 127 169 235 382
303 600 42 133 53 206 19 124z"/>
<path d="M3010 3819 c0 -70 113 -357 207 -526 66 -118 62 -111 118 -183 64
-85 72 -92 80 -80 3 5 1 10 -5 10 -8 0 -10 10 -6 28 3 15 3 21 0 15 -3 -7 -9
-13 -14 -13 -10 0 -106 132 -102 143 1 4 -1 7 -6 7 -14 0 -45 68 -38 85 3 10
2 14 -5 10 -6 -4 -17 1 -24 11 -17 23 -19 38 -3 28 7 -4 8 -3 4 5 -4 6 -11 9
-16 6 -7 -4 -16 14 -25 53 -2 8 -11 22 -20 32 -9 10 -14 24 -10 29 3 6 1 11
-5 11 -7 0 -9 7 -6 16 3 8 2 13 -2 10 -11 -6 -35 61 -27 74 3 5 1 10 -4 10 -6
0 -11 9 -11 20 0 11 -5 20 -11 20 -6 0 -9 8 -6 18 2 9 -4 31 -14 47 -9 17 -20
48 -23 70 -9 52 -26 81 -26 44z"/>
<path d="M2866 3785 c-9 -26 -7 -32 5 -12 6 10 9 21 6 23 -2 3 -7 -2 -11 -11z"/>
<path d="M3000 3395 c0 -197 2 -356 5 -354 7 8 9 698 2 706 -4 3 -7 -155 -7
-352z"/>
<path d="M3097 3733 c-3 -5 1 -22 9 -38 9 -17 13 -40 9 -55 -4 -16 -3 -20 3
-12 8 11 10 11 15 -2 4 -9 4 -24 1 -33 -4 -13 -3 -14 3 -5 7 9 13 1 23 -30 8
-24 13 -49 11 -55 -1 -7 3 -13 8 -13 12 0 51 -84 53 -116 1 -12 7 -20 13 -18
12 5 39 -52 30 -66 -4 -6 1 -7 11 -3 14 5 16 2 10 -20 -3 -14 -2 -29 4 -32 6
-4 7 1 4 12 -4 12 0 10 14 -7 11 -13 20 -27 20 -30 -3 -14 16 -40 28 -40 12 0
12 -4 3 -21 -6 -12 -7 -19 -2 -16 9 6 30 -10 62 -48 7 -9 15 -14 18 -11 3 2
-27 52 -67 110 -91 135 -161 267 -226 430 -28 71 -54 124 -57 119z"/>
<path d="M2249 3603 c-13 -16 -12 -17 4 -4 16 13 21 21 13 21 -2 0 -10 -8 -17
-17z"/>
<path d="M2767 3526 c-53 -72 -146 -170 -226 -237 -46 -39 -51 -47 -34 -51 12
-3 31 5 51 23 18 16 30 29 27 29 -3 0 3 9 14 21 12 13 24 18 32 13 9 -5 11 -2
6 9 -7 18 19 32 27 14 3 -7 3 -2 1 10 -3 12 0 25 6 29 8 4 9 3 5 -4 -4 -8 -2
-10 8 -6 8 3 12 12 10 19 -3 7 0 16 7 21 8 4 10 3 5 -4 -4 -7 -5 -12 -1 -12 3
0 10 12 15 26 6 14 14 22 20 19 6 -4 7 1 3 11 -4 11 -2 15 4 11 9 -6 32 29 29
43 0 3 10 20 23 38 13 18 21 35 19 37 -2 3 -25 -24 -51 -59z m-222 -266 c-3
-5 -12 -10 -18 -10 -7 0 -6 4 3 10 19 12 23 12 15 0z"/>
<path d="M2200 3549 c0 -5 5 -7 10 -4 6 3 10 8 10 11 0 2 -4 4 -10 4 -5 0 -10
-5 -10 -11z"/>
<path d="M2836 3473 c-6 -14 -5 -15 5 -6 7 7 10 15 7 18 -3 3 -9 -2 -12 -12z"/>
<path d="M3181 3464 c0 -11 3 -14 6 -6 3 7 2 16 -1 19 -3 4 -6 -2 -5 -13z"/>
<path d="M3265 3469 c-4 -6 -4 -13 -1 -16 3 -4 6 -1 6 6 0 7 5 9 12 5 7 -4 8
-3 4 4 -9 15 -13 15 -21 1z"/>
<path d="M3190 3416 c0 -2 7 -9 15 -16 13 -11 14 -10 9 4 -5 14 -24 23 -24 12z"/>
<path d="M3501 3386 c2 -2 15 -9 29 -15 24 -11 24 -11 6 3 -16 13 -49 24 -35
12z"/>
<path d="M3304 3352 c4 -3 14 -7 22 -8 9 -1 13 0 10 4 -4 3 -14 7 -22 8 -9 1
-13 0 -10 -4z"/>
<path d="M3326 3317 c3 -10 9 -15 12 -12 3 3 0 11 -7 18 -10 9 -11 8 -5 -6z"/>
<path d="M3596 3312 c-3 -5 1 -9 9 -9 8 0 12 4 9 9 -3 4 -7 8 -9 8 -2 0 -6 -4
-9 -8z"/>
<path d="M2627 3296 c-17 -13 -17 -14 0 -20 10 -4 14 -4 10 0 -4 4 -2 13 4 21
14 17 9 16 -14 -1z"/>
<path d="M2390 3270 c0 -5 5 -10 11 -10 5 0 7 5 4 10 -3 6 -8 10 -11 10 -2 0
-4 -4 -4 -10z"/>
<path d="M3418 3208 c-7 -17 15 -19 29 -3 4 4 3 5 -4 2 -6 -4 -13 -2 -15 5 -3
8 -6 6 -10 -4z"/>
<path d="M3311 3193 c7 -12 15 -20 18 -17 3 2 -3 12 -13 22 -17 16 -18 16 -5
-5z"/>
<path d="M2776 3173 c-6 -14 -5 -15 5 -6 7 7 10 15 7 18 -3 3 -9 -2 -12 -12z"/>
<path d="M4105 3150 c-3 -5 -1 -10 4 -10 6 0 11 5 11 10 0 6 -2 10 -4 10 -3 0
-8 -4 -11 -10z"/>
<path d="M2570 3079 c0 -5 5 -7 10 -4 6 3 10 8 10 11 0 2 -4 4 -10 4 -5 0 -10
-5 -10 -11z"/>
<path d="M2080 3021 c0 -6 4 -13 10 -16 6 -3 7 1 4 9 -7 18 -14 21 -14 7z"/>
<path d="M2168 2993 c7 -3 16 -2 19 1 4 3 -2 6 -13 5 -11 0 -14 -3 -6 -6z"/>
<path d="M3686 3687 c3 -10 9 -15 12 -12 3 3 0 11 -7 18 -10 9 -11 8 -5 -6z"/>
<path d="M3923 3355 c0 -8 4 -12 9 -9 5 3 6 10 3 15 -9 13 -12 11 -12 -6z"/>
<path d="M1775 3070 c-3 -5 -1 -10 4 -10 6 0 11 5 11 10 0 6 -2 10 -4 10 -3 0
-8 -4 -11 -10z"/>
<path d="M1735 3048 l-20 -21 23 12 c12 6 22 16 22 21 0 13 -2 12 -25 -12z"/>
<path d="M1730 2980 c0 -5 5 -10 11 -10 5 0 7 5 4 10 -3 6 -8 10 -11 10 -2 0
-4 -4 -4 -10z"/>
<path d="M1525 4941 c-3 -5 -2 -12 3 -15 5 -3 9 1 9 9 0 17 -3 19 -12 6z"/>
<path d="M4456 4942 c-3 -5 1 -9 9 -9 8 0 12 4 9 9 -3 4 -7 8 -9 8 -2 0 -6 -4
-9 -8z"/>
<path d="M1776 4902 c-3 -5 1 -9 9 -9 8 0 12 4 9 9 -3 4 -7 8 -9 8 -2 0 -6 -4
-9 -8z"/>
<path d="M1810 4905 c0 -2 6 -8 13 -14 10 -8 14 -7 14 2 0 8 -6 14 -14 14 -7
0 -13 -1 -13 -2z"/>
<path d="M4169 4893 c-13 -16 -12 -17 4 -4 16 13 21 21 13 21 -2 0 -10 -8 -17
-17z"/>
<path d="M2893 4723 c4 -3 1 -13 -6 -22 -11 -14 -10 -14 5 -2 16 12 16 31 1
31 -4 0 -3 -3 0 -7z"/>
<path d="M2555 4610 c-259 -87 -531 -270 -710 -480 -206 -241 -343 -516 -402
-805 -14 -72 -18 -136 -18 -320 0 -248 7 -287 52 -293 36 -5 46 28 34 108 -18
113 -13 323 9 455 85 498 417 947 865 1170 72 35 162 74 200 85 111 33 115 36
115 69 0 50 -22 51 -145 11z m119 -16 c6 -15 4 -15 -11 -3 -15 12 -16 12 -9
-6 4 -11 4 -16 1 -13 -4 4 -18 3 -31 -2 -14 -6 -35 -12 -47 -14 -12 -2 -35
-10 -52 -17 -16 -7 -33 -12 -37 -11 -5 1 -8 -2 -8 -8 0 -5 -6 -10 -12 -10 -7
0 -25 -6 -40 -14 -23 -12 -29 -12 -39 0 -6 8 -10 15 -8 17 49 28 68 34 78 24
6 -6 11 -7 11 -1 0 15 67 47 85 40 9 -3 13 -2 10 4 -4 6 7 10 24 10 16 0 33 5
36 10 10 16 42 12 49 -6z m-294 -109 c-3 -5 -11 -9 -17 -9 -7 1 -11 -2 -8 -6
3 -4 -9 -13 -25 -20 -16 -7 -27 -16 -24 -21 3 -5 -1 -6 -9 -3 -7 2 -27 -9 -44
-26 -16 -17 -40 -32 -52 -35 -12 -2 -28 -11 -36 -19 -8 -8 -24 -18 -35 -21
-11 -3 -20 -10 -20 -15 0 -5 -9 -12 -20 -15 -11 -4 -17 -11 -14 -17 5 -7 1 -9
-9 -5 -9 3 -16 3 -16 -1 3 -20 -2 -32 -11 -27 -6 4 -7 11 -4 17 4 6 2 8 -4 5
-5 -4 -8 -17 -4 -30 5 -22 5 -22 -16 -3 -20 17 -22 43 -2 31 4 -3 13 2 20 10
7 8 19 15 27 15 10 0 13 6 9 16 -3 8 -2 12 4 9 6 -3 10 -2 10 4 0 6 7 8 15 4
10 -3 15 -1 13 7 -2 6 6 17 17 23 11 7 26 19 33 27 12 13 13 13 7 0 -4 -8 1
-6 9 4 9 11 16 23 16 28 0 4 6 5 13 2 8 -3 20 2 27 11 10 12 16 13 27 4 11
-10 12 -8 6 6 -5 15 -3 17 11 12 9 -4 15 -3 12 2 -3 5 2 15 11 22 10 8 14 9
10 2 -4 -6 -2 -15 5 -19 7 -4 10 -4 6 1 -14 15 10 41 39 40 15 0 26 -4 23 -10z
m-376 -253 c2 -4 -8 -23 -24 -41 -28 -31 -50 -34 -50 -7 0 17 35 48 43 39 4
-3 7 -1 7 5 0 13 16 16 24 4z m-69 -72 c3 -5 -13 -29 -36 -52 -59 -61 -100
-119 -92 -132 3 -6 -3 -3 -14 7 -11 9 -24 14 -28 10 -5 -5 -3 0 4 9 7 10 17
15 22 12 5 -3 9 -2 8 3 -4 22 2 35 15 30 10 -4 13 -1 9 9 -3 8 1 14 10 14 8 0
21 8 28 18 13 15 12 16 -4 3 -9 -8 -20 -12 -23 -9 -2 3 7 13 21 22 14 9 25 23
25 31 0 8 8 19 18 24 22 13 29 13 37 1z m-145 -191 c0 -6 -4 -7 -10 -4 -5 3
-10 0 -10 -8 0 -8 -8 -21 -17 -28 -14 -12 -16 -12 -8 0 5 9 4 12 -3 7 -6 -4
-9 -13 -5 -22 3 -8 -2 -23 -11 -33 -9 -10 -13 -22 -9 -26 5 -5 1 -4 -8 3 -14
11 -16 9 -11 -14 3 -19 1 -25 -7 -20 -7 5 -11 0 -11 -13 0 -12 -8 -29 -17 -39
-18 -18 -25 -36 -26 -59 0 -7 -5 -9 -10 -6 -6 4 -8 -1 -4 -11 4 -11 3 -15 -4
-11 -6 4 -9 1 -8 -6 2 -8 -5 -29 -14 -46 -10 -18 -14 -33 -11 -33 4 0 -1 -9
-10 -19 -10 -11 -15 -25 -10 -32 4 -8 3 -10 -5 -5 -8 6 -10 1 -6 -17 5 -19 2
-28 -14 -37 -12 -6 -21 -16 -21 -23 0 -7 4 -6 10 3 15 24 12 -1 -9 -57 -10
-29 -25 -101 -32 -160 -7 -59 -17 -114 -22 -120 -6 -9 -5 -13 3 -13 8 0 10 -8
6 -22 -8 -26 -8 -85 -1 -168 11 -137 12 -179 1 -183 -13 -5 -13 -3 -20 88 -12
144 -13 205 -6 200 5 -3 5 8 0 25 -5 17 -7 45 -5 63 2 17 9 75 16 127 6 52 16
100 21 107 5 7 7 17 3 23 -3 5 -1 10 4 10 6 0 10 8 9 18 -3 40 3 71 17 85 8 8
12 17 9 20 -4 3 1 16 10 29 9 12 16 31 16 41 0 12 4 16 13 11 9 -6 9 -4 -1 8
-10 12 -10 21 -1 42 7 14 16 26 21 26 4 0 8 9 8 19 0 11 5 23 10 26 6 4 8 11
5 16 -4 5 1 9 9 9 9 0 16 5 16 11 0 5 -6 7 -12 3 -7 -4 -5 2 5 13 9 11 17 28
17 37 0 13 5 16 16 12 12 -5 15 -2 10 9 -3 9 -2 13 4 10 6 -3 10 -1 10 4 0 20
2 26 19 51 22 31 35 62 32 74 -1 5 6 3 15 -5 14 -11 16 -11 10 0 -5 8 -3 16 5
21 15 10 29 4 29 -11z"/>
<path d="M2190 4389 c0 -5 5 -7 10 -4 6 3 10 8 10 11 0 2 -4 4 -10 4 -5 0 -10
-5 -10 -11z"/>
<path d="M2115 4340 c-8 -13 5 -13 25 0 13 8 13 10 -2 10 -9 0 -20 -4 -23 -10z"/>
<path d="M1900 4145 c-7 -9 -8 -15 -2 -15 5 0 12 7 16 15 3 8 4 15 2 15 -2 0
-9 -7 -16 -15z"/>
<path d="M1875 4110 c-3 -6 1 -7 9 -4 18 7 21 14 7 14 -6 0 -13 -4 -16 -10z"/>
<path d="M1565 3629 c-4 -6 -5 -12 -2 -15 2 -3 7 2 10 11 7 17 1 20 -8 4z"/>
<path d="M1462 3190 c0 -14 2 -19 5 -12 2 6 2 18 0 25 -3 6 -5 1 -5 -13z"/>
<path d="M1459 2938 c4 -28 6 -29 9 -9 2 13 0 27 -5 32 -6 6 -7 -3 -4 -23z"/>
<path d="M3310 4626 c-6 -8 -10 -25 -8 -37 2 -19 20 -28 103 -55 530 -175 941
-641 1067 -1211 18 -82 22 -131 22 -298 1 -110 -2 -219 -7 -242 -5 -32 -3 -45
9 -58 23 -22 46 -15 63 19 20 41 27 346 12 472 -77 626 -528 1189 -1112 1388
-118 40 -131 42 -149 22z m102 -32 c21 -3 36 -10 33 -15 -5 -8 61 -26 78 -21
5 1 6 -2 3 -7 -3 -5 1 -11 9 -15 8 -3 15 -1 15 3 0 5 11 4 24 -2 15 -7 23 -18
21 -29 -2 -10 1 -21 7 -24 6 -4 8 -3 5 2 -3 6 -2 16 4 24 7 12 9 12 9 1 0 -8
6 -11 16 -7 8 3 12 2 9 -4 -3 -6 2 -10 13 -10 28 0 136 -80 124 -92 -6 -6 -19
-4 -35 7 -14 9 -32 18 -40 19 -8 1 -22 9 -31 19 -10 9 -24 17 -32 17 -8 0 -14
5 -14 11 0 6 -7 9 -15 5 -8 -3 -22 2 -31 12 -9 9 -26 18 -37 19 -12 2 -30 13
-40 24 -14 15 -22 18 -27 9 -5 -9 -9 -9 -14 -1 -4 6 -19 11 -33 11 -16 0 -23
5 -20 13 3 8 -6 12 -27 12 -22 0 -30 4 -28 14 2 11 0 12 -11 3 -13 -11 -27 -7
-27 9 0 7 18 6 92 -7z m395 -204 c-1 -20 -9 -25 -20 -13 -4 3 -2 12 4 20 15
18 18 17 16 -7z m93 -58 c0 -2 -8 2 -17 9 -16 13 -17 12 -4 -3 7 -10 17 -15
23 -12 5 3 15 0 24 -6 11 -10 11 -16 3 -26 -9 -11 -13 -11 -26 1 -8 9 -20 12
-26 8 -7 -3 -9 -3 -5 1 8 9 -20 40 -44 49 -14 5 -16 17 -9 45 1 4 81 -61 81
-66z m68 -60 c-10 -12 -10 -14 0 -8 6 4 12 2 12 -3 0 -6 7 -11 15 -11 8 0 15
-4 15 -8 0 -16 -34 -9 -57 11 -30 26 -29 35 2 35 22 0 24 -3 13 -16z m145
-133 c-1 -4 6 -14 17 -24 11 -10 17 -22 14 -27 -3 -4 -2 -8 3 -7 4 1 15 1 23
0 12 -1 11 -4 -3 -18 -15 -16 -18 -15 -36 8 -10 13 -30 37 -44 53 -14 17 -23
34 -20 39 3 6 1 7 -6 3 -11 -7 -18 -2 -56 44 -11 13 -15 20 -8 17 6 -4 14 -3
18 3 6 10 103 -79 98 -91z m79 -103 c-2 -9 3 -15 10 -14 7 2 12 -5 12 -14 -1
-10 2 -16 6 -13 11 7 33 -22 25 -35 -4 -6 -1 -9 5 -8 7 2 17 -5 23 -15 10 -14
9 -20 -3 -27 -8 -5 -10 -10 -4 -10 5 0 16 6 23 13 10 8 12 8 7 0 -3 -6 -2 -14
4 -18 15 -9 12 -27 -2 -20 -7 4 -1 -3 14 -15 18 -14 25 -27 21 -37 -4 -11 -2
-14 5 -9 7 4 12 1 12 -7 0 -8 7 -20 15 -27 9 -7 13 -15 11 -18 -3 -2 6 -21 19
-43 26 -40 22 -56 -9 -34 -10 8 -15 19 -10 26 4 7 3 10 -3 6 -9 -5 -43 51 -71
115 -2 5 5 5 15 2 13 -4 12 -2 -4 8 -35 21 -64 63 -52 75 8 8 7 13 -2 18 -8 5
-10 4 -5 -3 4 -7 3 -12 -2 -12 -15 0 -94 119 -87 130 10 16 30 5 27 -14z m218
-370 c0 5 6 -3 14 -17 17 -33 51 -122 49 -129 -1 -3 6 -13 15 -23 14 -16 14
-17 0 -12 -12 5 -10 -4 8 -42 15 -30 25 -69 27 -105 1 -31 5 -54 8 -52 4 2 10
-15 13 -39 5 -28 3 -43 -5 -46 -8 -2 -7 -6 2 -12 11 -6 14 -44 15 -161 0 -84
-3 -159 -9 -165 -5 -7 -7 -23 -3 -36 3 -13 2 -27 -1 -31 -4 -4 -8 -17 -8 -28
0 -12 -6 -22 -13 -24 -7 -1 -8 0 -2 3 5 2 10 9 10 14 0 6 -5 7 -11 3 -7 -4 -9
0 -5 12 3 11 8 66 11 124 3 58 8 113 11 123 3 9 1 17 -4 17 -5 0 -6 20 -2 48
4 26 4 49 0 52 -5 3 -10 34 -11 70 -3 80 -17 150 -34 170 -7 8 -10 21 -8 27 3
7 -3 33 -12 57 -10 25 -14 50 -10 57 5 7 4 10 -2 6 -11 -7 -27 49 -17 64 3 5
-2 6 -11 3 -11 -5 -17 2 -21 25 -4 17 -11 34 -15 37 -5 3 -9 10 -9 16 0 7 6 6
15 -2 8 -7 15 -9 15 -4z"/>
<path d="M3710 4445 c13 -14 26 -25 28 -25 3 0 -5 11 -18 25 -13 14 -26 25
-28 25 -3 0 5 -11 18 -25z"/>
<path d="M4110 4111 c0 -6 4 -13 10 -16 6 -3 7 1 4 9 -7 18 -14 21 -14 7z"/>
<path d="M4541 3104 c0 -11 3 -14 6 -6 3 7 2 16 -1 19 -3 4 -6 -2 -5 -13z"/>
<path d="M2165 4471 c-3 -5 -2 -12 3 -15 5 -3 9 1 9 9 0 17 -3 19 -12 6z"/>
<path d="M3985 4361 c-3 -5 -2 -12 3 -15 5 -3 9 1 9 9 0 17 -3 19 -12 6z"/>
<path d="M5016 4308 c3 -5 10 -6 15 -3 13 9 11 12 -6 12 -8 0 -12 -4 -9 -9z"/>
<path d="M1387 4176 c-26 -26 -106 -171 -148 -267 -123 -281 -174 -525 -173
-834 0 -206 10 -288 54 -465 165 -662 666 -1206 1305 -1419 463 -154 927 -124
1370 89 200 96 368 215 539 380 469 454 685 1108 576 1746 -45 264 -127 493
-252 702 -52 86 -71 98 -101 64 -15 -17 -15 -21 9 -63 64 -114 156 -314 188
-411 176 -531 115 -1121 -163 -1581 -178 -295 -415 -529 -705 -696 -215 -125
-442 -203 -669 -231 -141 -18 -423 -8 -554 19 -422 88 -820 337 -1100 688
-407 511 -524 1171 -318 1799 37 114 125 306 176 385 31 49 36 78 17 97 -16
16 -33 15 -51 -2z m3216 -59 c-4 -7 2 -5 13 3 10 8 16 11 12 6 -4 -5 4 -28 17
-51 14 -23 22 -45 17 -49 -4 -4 -2 -7 3 -6 21 5 29 -1 15 -10 -10 -6 -11 -10
-2 -10 6 0 12 -7 12 -16 0 -8 5 -12 10 -9 9 6 12 2 14 -27 1 -7 5 -16 9 -19
10 -7 -2 -39 -15 -39 -6 0 -8 6 -5 14 3 8 -3 25 -14 37 -11 13 -17 29 -14 36
2 8 0 11 -5 8 -6 -3 -10 0 -10 7 0 8 -11 29 -25 48 -14 19 -23 40 -20 48 2 7
1 11 -4 8 -5 -3 -14 1 -21 9 -7 8 -9 15 -4 15 4 0 3 5 -3 11 -9 9 -8 15 0 24
10 10 14 9 20 -7 4 -11 4 -25 0 -31z m-3180 15 c-9 -23 -33 -46 -40 -38 -3 3
0 13 8 23 12 14 12 15 0 9 -9 -6 -12 -5 -9 5 3 8 11 13 17 12 6 -2 11 2 11 8
0 5 4 8 10 4 5 -3 6 -13 3 -23z m-40 -48 c3 -4 1 -16 -5 -28 -7 -11 -11 -25
-10 -29 1 -5 -2 -6 -7 -3 -11 7 -23 -22 -14 -36 4 -7 1 -8 -7 -3 -10 6 -12 4
-7 -9 4 -10 3 -15 -3 -11 -6 3 -10 1 -10 -5 0 -6 -9 -30 -20 -52 -11 -23 -20
-46 -20 -52 0 -5 -7 -18 -16 -27 -9 -10 -17 -29 -18 -41 -1 -15 -7 -23 -19
-22 -10 1 -14 -3 -9 -10 10 -16 10 -56 -1 -49 -4 3 -7 -1 -5 -8 1 -8 -7 -45
-19 -84 -36 -117 -46 -164 -59 -292 -4 -35 -11 -63 -17 -63 -5 0 -4 -7 3 -15
6 -8 8 -20 4 -26 -11 -19 -6 -306 6 -329 13 -25 13 -39 -1 -20 -11 16 -10 8 7
-49 6 -19 4 -22 -7 -16 -12 8 -12 6 0 -9 8 -9 18 -41 22 -69 4 -29 11 -61 15
-71 6 -15 4 -17 -7 -11 -8 5 -6 -1 4 -13 11 -11 16 -26 12 -31 -3 -6 -2 -11 2
-11 9 0 26 -54 38 -118 4 -18 10 -30 13 -28 4 2 8 -16 10 -41 1 -30 -1 -42 -9
-38 -5 4 -8 13 -5 21 3 7 0 16 -6 20 -7 5 -8 2 -3 -7 5 -9 5 -11 -2 -4 -5 6
-15 30 -22 55 -7 25 -16 58 -21 74 -13 40 -5 44 14 9 8 -15 15 -22 16 -15 0 7
-11 24 -24 36 -24 25 -43 62 -26 51 12 -8 13 7 1 20 -9 11 -32 94 -37 140 -2
17 -8 66 -13 110 -14 110 -13 300 1 409 7 50 12 105 13 123 0 17 4 29 9 25 5
-3 7 2 3 10 -3 9 -3 19 0 22 3 3 8 27 10 53 2 28 10 51 18 56 8 4 15 13 15 20
0 7 -4 6 -10 -3 -14 -22 -12 -7 5 33 8 19 17 51 19 71 2 19 8 41 13 48 4 7 8
15 9 18 11 37 18 50 26 50 6 0 8 7 5 15 -4 8 -1 17 5 21 7 5 8 2 3 -7 -5 -8
-4 -11 0 -7 8 7 15 39 18 80 1 9 5 14 9 12 4 -3 8 3 8 14 0 11 11 36 25 56 14
20 25 41 25 46 0 6 4 10 9 10 5 0 11 9 14 20 5 20 18 26 30 14z m3370 -241 c1
-29 5 -38 13 -32 10 8 20 -11 25 -48 1 -5 5 -18 10 -31 5 -12 11 -34 13 -49 3
-14 10 -29 16 -33 6 -4 8 -14 5 -22 -4 -9 -2 -19 4 -22 6 -4 8 -13 4 -21 -3
-8 0 -15 5 -15 6 0 11 -17 10 -37 0 -21 5 -51 11 -66 8 -21 8 -26 -1 -21 -6 4
-4 -3 5 -17 19 -26 22 -43 7 -34 -14 9 -12 -2 6 -30 11 -16 14 -35 9 -57 -5
-24 -4 -29 4 -18 12 16 8 -434 -4 -480 -3 -14 -8 -41 -10 -60 -2 -19 -9 -48
-15 -65 -7 -16 -12 -42 -12 -58 0 -15 -3 -25 -7 -23 -4 3 -6 -8 -5 -25 1 -16
-2 -26 -7 -23 -5 3 -9 -5 -9 -18 0 -13 -8 -34 -17 -47 -9 -14 -11 -21 -5 -17
12 7 -3 -49 -19 -70 -5 -6 -6 -14 -2 -17 3 -4 1 -7 -6 -7 -7 0 -9 -5 -6 -10 3
-6 -1 -17 -9 -26 -9 -8 -16 -24 -16 -35 0 -11 -4 -18 -9 -15 -5 4 -7 -4 -3
-16 4 -15 2 -19 -8 -13 -8 5 -11 3 -8 -6 3 -8 -2 -20 -11 -27 -9 -8 -10 -10
-2 -6 12 6 -44 -112 -60 -126 -3 -3 -11 -20 -18 -37 -14 -35 -26 -41 -35 -20
-3 6 -3 2 -1 -9 3 -12 -1 -28 -9 -37 -8 -8 -12 -18 -8 -22 4 -5 2 -5 -5 -1
-14 8 -36 -27 -25 -40 4 -5 -1 -3 -10 4 -14 12 -16 10 -14 -13 3 -20 1 -23
-11 -14 -11 9 -12 9 -7 -5 4 -10 -12 -37 -47 -78 -82 -95 -77 -92 -95 -77 -13
10 -11 15 13 30 15 11 24 19 18 19 -5 0 5 14 23 30 18 16 30 30 25 30 -4 0 0
5 10 11 9 5 17 16 17 24 0 8 6 18 14 22 17 10 106 138 106 153 0 5 3 10 8 10
4 0 13 14 20 30 8 17 20 37 28 44 8 8 15 24 17 37 2 12 15 33 28 47 13 14 18
22 12 18 -19 -11 -16 0 12 44 14 22 25 46 25 54 0 23 11 46 20 41 4 -3 7 1 7
8 -1 11 15 77 29 117 4 13 6 13 15 0 7 -11 8 -7 3 13 -3 15 -1 33 5 41 6 7 9
21 5 30 -3 9 -1 16 6 16 7 0 9 8 5 20 -4 11 0 42 9 68 14 42 23 96 31 172 1
14 3 27 5 30 1 3 1 29 0 58 -1 32 4 60 12 69 9 12 10 15 0 9 -9 -6 -12 14 -12
86 -1 51 -3 107 -5 123 -13 81 -13 105 -2 98 7 -4 6 1 -2 10 -13 17 -19 39
-25 102 -2 17 -9 41 -15 54 -7 12 -10 30 -6 38 3 9 1 19 -5 23 -6 4 -13 24
-16 46 -3 21 -13 54 -21 73 -13 28 -13 38 -3 54 10 17 10 19 -4 14 -12 -5 -20
1 -27 21 -5 15 -16 40 -24 57 -10 22 -11 33 -3 43 16 19 28 2 31 -45z m-3491
-1522 c-3 -8 -1 -12 4 -8 12 7 30 -21 29 -45 0 -10 -4 -17 -10 -15 -5 1 -10
10 -9 19 0 9 -3 15 -7 13 -4 -3 -10 7 -13 20 -4 14 -11 23 -16 20 -14 -9 -12
19 2 33 10 10 14 9 19 -5 3 -10 4 -24 1 -32z m52 -97 c-2 -30 0 -33 12 -23 12
10 13 9 8 -6 -5 -13 -4 -16 4 -11 8 5 12 0 12 -13 0 -11 5 -23 11 -26 6 -4 8
-14 5 -22 -3 -8 -1 -11 4 -8 6 3 10 -1 10 -10 0 -9 4 -13 10 -10 5 3 12 -6 16
-20 3 -14 11 -22 17 -18 6 3 7 1 3 -6 -8 -13 12 -44 23 -36 4 2 8 -2 9 -10 1
-8 3 -21 4 -29 1 -8 7 -12 15 -9 19 8 16 -1 -9 -23 -12 -10 -18 -13 -14 -6 4
6 2 12 -3 12 -6 0 -11 6 -11 14 0 7 -7 19 -15 26 -8 7 -12 16 -9 21 3 5 -2 9
-10 9 -10 0 -13 6 -9 17 4 10 2 14 -5 9 -6 -3 -14 3 -18 16 -3 13 -15 35 -26
50 -11 16 -17 32 -13 37 3 5 0 13 -6 17 -8 4 -9 3 -5 -4 4 -7 5 -12 3 -12 -3
0 -14 18 -24 39 -18 36 -18 41 -4 55 8 9 16 16 17 16 1 0 0 -16 -2 -36z m251
-374 c-4 -6 -2 -17 5 -25 7 -9 8 -15 0 -20 -5 -3 -13 2 -17 12 -4 10 -15 24
-24 31 -10 7 -16 19 -12 28 3 9 0 14 -8 12 -8 -2 -15 7 -17 20 -2 12 -8 20
-13 17 -11 -7 -12 8 -2 19 11 10 96 -82 88 -94z m40 -68 c-4 -12 -3 -13 10 -2
8 7 15 8 15 3 0 -5 19 -29 42 -53 24 -24 36 -40 29 -35 -10 5 -12 4 -7 -3 4
-7 13 -12 21 -12 7 0 22 -11 33 -25 11 -14 25 -25 31 -25 6 0 20 -13 33 -30
12 -16 28 -30 35 -30 7 0 17 -9 23 -21 7 -12 18 -18 26 -15 8 3 14 -1 14 -9 0
-8 5 -15 11 -15 5 0 7 -5 4 -11 -4 -6 -1 -9 6 -8 18 3 49 -11 49 -22 0 -4 -8
-6 -17 -3 -15 5 -15 4 -3 -4 10 -8 18 -8 27 0 12 10 17 4 14 -15 0 -4 2 -6 6
-6 21 3 33 -2 33 -16 0 -8 5 -15 11 -15 5 0 7 6 3 13 -5 8 -2 7 9 -2 10 -8 15
-16 13 -19 -3 -2 0 -14 5 -26 9 -16 5 -15 -15 7 -25 25 -38 31 -58 28 -5 0 -8
3 -8 8 0 4 -20 21 -45 37 -25 15 -45 32 -45 37 0 4 -5 5 -12 1 -7 -4 -8 -3 -4
4 4 7 1 12 -9 12 -9 0 -27 11 -41 25 -13 13 -28 25 -32 26 -4 0 -6 5 -5 10 2
5 -3 8 -10 6 -6 -1 -11 4 -9 12 2 8 -3 11 -12 8 -8 -3 -20 2 -28 11 -11 13
-11 14 1 7 10 -5 12 -4 7 3 -4 7 -11 12 -15 12 -10 0 -121 105 -121 115 0 4
-7 13 -17 20 -9 7 -17 21 -18 31 0 11 -4 26 -9 34 -4 8 2 4 14 -9 11 -13 18
-31 15 -39z m2761 -43 c3 -6 1 -16 -6 -22 -10 -9 -11 -9 -5 2 6 10 4 12 -4 7
-7 -5 -10 -15 -7 -23 3 -8 1 -11 -4 -8 -6 3 -10 2 -10 -2 0 -5 -9 -14 -21 -21
-15 -10 -19 -10 -14 -1 5 8 4 10 -3 5 -6 -4 -9 -13 -6 -20 7 -18 -22 -41 -32
-25 -5 8 -3 9 6 4 8 -5 11 -4 6 3 -4 6 -14 9 -24 6 -11 -3 -8 1 7 12 13 10 40
35 60 55 40 41 47 44 57 28z m-116 -120 c0 -6 -7 -8 -16 -5 -14 5 -15 4 -4 -9
11 -13 10 -14 -5 -9 -12 5 -16 4 -12 -3 9 -14 -42 -55 -59 -49 -7 3 -11 0 -9
-7 6 -15 -72 -70 -87 -61 -6 4 -8 3 -4 -4 3 -6 -4 -18 -16 -26 -17 -12 -24
-13 -30 -3 -6 9 -8 8 -9 -3 -1 -8 0 -19 1 -25 1 -5 -2 -7 -5 -3 -10 10 -47
-11 -40 -23 4 -5 1 -9 -4 -9 -6 0 -11 5 -11 10 0 6 -6 5 -14 -2 -8 -7 -12 -16
-9 -21 2 -4 1 -7 -4 -6 -13 3 -113 -47 -108 -55 3 -3 2 -4 -1 -1 -4 2 -25 -5
-48 -16 -23 -12 -49 -26 -59 -31 -10 -5 -28 -6 -39 -2 -13 4 -18 2 -14 -4 6
-10 -18 -22 -54 -28 -21 -4 -111 -34 -137 -46 -11 -6 -26 -7 -32 -4 -6 4 -11
3 -11 -2 0 -8 -92 -25 -210 -39 -77 -10 -297 -11 -375 -2 -161 18 -169 19
-190 26 -34 11 -48 15 -87 20 -21 3 -38 9 -38 15 0 5 -10 6 -21 3 -16 -5 -19
-4 -14 5 5 8 4 11 -3 6 -6 -3 -23 -1 -39 5 -15 6 -30 10 -32 9 -2 -1 -7 3 -10
9 -4 5 -19 12 -35 15 -16 3 -34 10 -40 16 -5 5 -18 10 -28 10 -9 0 -27 10 -39
23 -12 12 -19 16 -14 9 5 -10 -1 -10 -23 2 -17 9 -38 16 -46 16 -10 0 -13 6
-10 15 4 11 2 13 -9 9 -8 -3 -18 0 -22 5 -3 6 -10 9 -14 6 -5 -2 -13 7 -19 20
-10 22 -9 25 9 25 11 0 31 -11 45 -25 14 -14 29 -25 35 -25 6 0 7 -6 3 -12 -5
-8 0 -7 11 2 17 14 18 13 12 -2 -4 -12 -2 -15 9 -11 8 3 25 -2 39 -11 14 -9
30 -14 35 -11 6 3 10 1 10 -6 0 -6 -8 -9 -20 -6 -12 3 -18 1 -14 -5 3 -5 17
-7 31 -3 14 3 31 0 40 -7 9 -7 31 -14 49 -15 19 -1 42 -7 51 -13 15 -9 13 -10
-12 -5 -16 4 -27 3 -22 -1 4 -4 29 -11 55 -15 62 -10 103 -19 122 -27 8 -3 20
-7 25 -8 6 -1 12 -3 15 -4 3 -1 16 -3 30 -5 30 -4 96 -14 128 -21 14 -3 20 -9
16 -16 -5 -7 -3 -8 6 -3 7 4 103 9 214 11 117 1 231 8 273 16 39 8 70 11 67 7
-2 -4 9 -1 26 8 17 8 38 12 46 9 8 -3 12 -2 9 4 -3 6 0 11 7 11 7 1 24 4 38 6
14 2 35 4 47 5 13 0 20 4 17 9 -3 5 3 6 12 2 12 -4 15 -3 10 5 -4 7 -1 13 8
13 20 2 26 4 49 13 9 5 26 6 36 3 12 -3 18 1 17 12 -1 10 5 15 17 13 9 -2 17
1 17 7 0 5 15 8 33 6 20 -3 27 -1 19 4 -14 8 -8 12 113 67 17 7 26 14 20 14
-5 0 17 16 49 36 32 19 65 33 72 30 7 -3 16 0 20 6 4 7 3 8 -4 4 -7 -4 -12 -3
-12 3 0 13 36 24 52 16 7 -4 4 1 -7 10 -20 17 -20 17 2 11 12 -4 24 -2 29 5 5
8 3 9 -6 4 -9 -6 -11 -4 -6 4 5 7 14 10 22 7 7 -3 16 0 20 6 4 7 3 8 -4 4 -7
-4 -12 -3 -12 3 0 6 17 19 38 30 20 11 33 20 27 21 -14 0 47 40 63 40 6 0 12
-5 12 -11z"/>
<path d="M1315 4000 c-3 -5 -1 -10 4 -10 6 0 11 5 11 10 0 6 -2 10 -4 10 -3 0
-8 -4 -11 -10z"/>
<path d="M1295 3960 c-3 -5 -1 -10 4 -10 6 0 11 5 11 10 0 6 -2 10 -4 10 -3 0
-8 -4 -11 -10z"/>
<path d="M1513 1898 c9 -7 24 -22 33 -33 8 -11 12 -13 8 -5 -11 24 -36 50 -47
50 -6 0 -3 -6 6 -12z"/>
<path d="M4199 1605 c-1 -3 -2 -8 -3 -12 -1 -5 -5 -15 -10 -23 -7 -12 -6 -13
4 -3 13 12 23 43 14 43 -2 0 -5 -2 -5 -5z"/>
<path d="M2110 1380 c0 -5 5 -10 11 -10 5 0 7 5 4 10 -3 6 -8 10 -11 10 -2 0
-4 -4 -4 -10z"/>
<path d="M3820 1340 c0 -5 7 -7 15 -4 8 4 15 8 15 10 0 2 -7 4 -15 4 -8 0 -15
-4 -15 -10z"/>
<path d="M2728 1153 c6 -2 18 -2 25 0 6 3 1 5 -13 5 -14 0 -19 -2 -12 -5z"/>
<path d="M3248 1153 c7 -3 16 -2 19 1 4 3 -2 6 -13 5 -11 0 -14 -3 -6 -6z"/>
<path d="M2496 4152 c-3 -5 1 -9 9 -9 8 0 12 4 9 9 -3 4 -7 8 -9 8 -2 0 -6 -4
-9 -8z"/>
<path d="M2126 3592 c-3 -5 1 -9 9 -9 8 0 12 4 9 9 -3 4 -7 8 -9 8 -2 0 -6 -4
-9 -8z"/>
<path d="M661 3504 c0 -11 3 -14 6 -6 3 7 2 16 -1 19 -3 4 -6 -2 -5 -13z"/>
<path d="M2006 3442 c-3 -5 1 -9 9 -9 8 0 12 4 9 9 -3 4 -7 8 -9 8 -2 0 -6 -4
-9 -8z"/>
<path d="M1936 3318 c3 -5 10 -6 15 -3 13 9 11 12 -6 12 -8 0 -12 -4 -9 -9z"/>
<path d="M1849 3263 c-13 -16 -12 -17 4 -4 9 7 17 15 17 17 0 8 -8 3 -21 -13z"/>
<path d="M4125 3271 c-3 -5 -2 -12 3 -15 5 -3 9 1 9 9 0 17 -3 19 -12 6z"/>
<path d="M2187 2769 c7 -7 15 -10 18 -7 3 3 -2 9 -12 12 -14 6 -15 5 -6 -5z"/>
<path d="M2239 2736 c-58 -20 -96 -53 -120 -103 -41 -85 -23 -199 43 -260 77
-72 233 -70 300 4 17 19 17 21 -11 47 l-28 27 -38 -25 c-47 -32 -92 -33 -136
-3 -62 42 -76 140 -28 201 11 14 38 30 61 36 36 10 46 9 87 -13 l47 -24 33 27
32 27 -31 26 c-53 45 -140 59 -211 33z m148 -28 c7 -5 17 -7 23 -3 5 3 10 -2
10 -11 0 -10 -3 -14 -7 -11 -3 4 -12 2 -19 -4 -9 -7 -22 -6 -46 4 -19 8 -42
11 -53 7 -11 -4 -24 -5 -28 -3 -5 3 -15 -4 -23 -16 -9 -12 -19 -19 -24 -16
-12 7 -32 -30 -22 -40 4 -5 1 -5 -6 -1 -7 4 -9 12 -6 18 4 6 3 9 -2 5 -5 -3
-10 -41 -12 -84 -3 -69 -1 -81 17 -97 15 -14 18 -23 11 -31 -8 -9 -5 -12 10
-11 11 0 19 -3 19 -9 0 -5 -10 -9 -22 -8 -12 1 -16 -1 -9 -3 6 -3 10 -10 7
-14 -17 -27 -85 93 -85 149 0 46 9 73 21 65 5 -3 6 2 3 10 -3 9 -2 16 4 16 5
0 9 7 8 16 -2 25 65 74 109 79 21 3 40 7 42 8 6 6 68 -6 80 -15z m53 -38 c3
-1 -4 -5 -15 -9 -22 -9 -38 -4 -30 9 4 7 22 7 45 0z m-7 -274 c4 -9 0 -13 -11
-12 -9 2 -18 8 -20 14 -5 17 25 15 31 -2z m-169 -15 c3 -5 25 -7 49 -4 71 9
90 8 94 -2 5 -16 -50 -33 -76 -24 -12 5 -20 5 -17 0 3 -4 -9 -8 -26 -9 -24 -1
-29 2 -18 9 12 8 11 10 -5 8 -11 -1 -29 -1 -40 0 -20 2 -20 2 -1 16 23 17 33
19 40 6z"/>
<path d="M2243 2698 c-15 -20 -25 -38 -20 -38 3 0 12 11 21 25 17 26 16 35 -1
13z"/>
<path d="M2189 2663 c-13 -16 -12 -17 4 -4 16 13 21 21 13 21 -2 0 -10 -8 -17
-17z"/>
<path d="M2149 2466 c13 -16 51 -41 51 -33 0 2 -15 14 -32 27 -21 15 -28 17
-19 6z"/>
<path d="M2582 2532 l-90 -213 51 3 c49 3 51 4 65 44 14 39 18 42 71 54 31 7
69 19 84 27 16 8 30 13 31 11 1 -2 14 -31 29 -66 l27 -63 -20 -27 c-21 -29
-40 -101 -35 -130 2 -9 6 -30 10 -45 8 -39 79 -114 121 -127 94 -31 192 0 243
77 62 93 36 228 -54 283 l-35 22 0 99 c0 64 -4 98 -10 94 -6 -3 -7 1 -4 10 8
19 10 16 78 -102 42 -73 51 -83 76 -83 17 0 30 7 35 17 10 27 89 162 95 163 3
0 4 -58 2 -130 l-3 -130 45 0 46 0 0 213 0 212 -48 -3 -48 -4 -49 -86 c-85
-151 -69 -148 -137 -30 -33 57 -63 106 -66 110 -4 3 -26 8 -50 9 l-43 3 -2
-173 c-2 -152 -4 -174 -18 -176 -9 -2 -25 -6 -35 -9 -16 -5 -23 5 -43 55 -18
47 -21 63 -11 72 9 9 14 8 24 -5 11 -15 16 -10 40 39 15 30 26 56 24 58 -2 1
-31 5 -66 8 l-63 5 16 -24 16 -25 -83 -38 c-46 -21 -97 -41 -115 -44 l-32 -6
30 65 c16 36 29 72 29 80 0 8 5 14 10 14 6 0 10 -6 10 -14 0 -7 7 -30 15 -49
l15 -36 40 16 c22 9 39 19 38 23 -2 3 -18 42 -37 85 l-35 80 -47 0 -47 0 -90
-213z m179 167 c5 -8 7 -20 4 -27 -3 -7 0 -10 5 -7 6 3 10 -5 10 -18 0 -14 7
-30 15 -37 8 -7 12 -16 9 -21 -10 -17 -34 -9 -44 14 -18 43 -38 61 -54 48 -11
-9 -15 -9 -18 1 -3 8 -7 6 -11 -6 -5 -11 -3 -15 5 -10 7 5 9 2 6 -7 -3 -8 -11
-31 -19 -51 -7 -21 -17 -38 -22 -38 -4 0 -5 -4 -2 -10 3 -5 2 -10 -2 -10 -17
0 -8 -40 9 -46 10 -3 16 -10 13 -15 -8 -12 0 -11 40 5 19 8 35 13 35 10 0 -3
13 4 29 15 33 24 41 26 41 10 0 -5 -4 -7 -10 -4 -6 3 -7 -1 -4 -10 5 -11 2
-14 -10 -9 -9 3 -23 1 -31 -6 -8 -7 -15 -10 -15 -8 0 3 -28 -4 -62 -16 -54
-18 -66 -27 -81 -59 -20 -40 -52 -50 -54 -17 -1 11 2 18 7 15 6 -3 7 1 4 9 -3
9 -2 16 3 16 5 0 18 27 29 59 10 33 22 57 26 55 4 -3 5 1 2 9 -3 8 2 17 10 20
9 4 16 12 16 19 0 9 -3 8 -10 -2 -5 -8 -10 -10 -10 -4 0 6 8 22 19 35 10 13
22 39 26 57 4 18 11 29 17 26 6 -4 8 1 4 13 -6 18 -2 20 30 18 19 -1 40 -8 45
-16z m304 11 c4 -6 11 -8 16 -5 5 3 6 -1 3 -9 -3 -9 -10 -14 -14 -11 -5 3 -11
1 -15 -4 -3 -6 5 -8 18 -6 20 4 29 -5 63 -65 21 -39 43 -70 48 -70 5 0 2 -8
-5 -17 -10 -12 -11 -15 -1 -9 16 10 44 -12 35 -28 -3 -6 8 4 25 23 17 19 29
38 26 43 -3 4 2 11 10 14 9 3 13 10 10 15 -3 5 0 9 5 9 6 0 11 10 11 22 0 20
1 21 13 4 12 -16 13 -15 11 14 -1 19 3 33 11 37 8 2 11 12 8 20 -5 12 -3 14 7
8 9 -6 12 -4 8 6 -4 11 2 16 22 17 25 2 28 -1 32 -40 2 -24 4 -106 4 -182 -1
-121 -3 -139 -17 -141 -15 -3 -17 12 -21 111 -4 136 -13 153 -59 106 -17 -18
-27 -32 -23 -32 5 0 4 -4 -1 -8 -6 -4 -23 -28 -38 -54 -15 -27 -31 -48 -36
-48 -21 0 -76 93 -66 111 4 5 2 8 -3 7 -12 -4 -68 54 -64 65 1 5 -2 6 -8 2 -5
-3 -10 0 -10 7 0 10 -3 9 -9 -2 -6 -8 -8 -17 -5 -21 2 -4 0 -19 -6 -34 -7 -17
-7 -24 0 -20 6 3 10 -5 10 -19 0 -14 -5 -28 -10 -31 -8 -5 -7 -11 0 -20 7 -8
11 -27 10 -42 -1 -15 -2 -31 -1 -35 3 -20 0 -23 -19 -24 -11 -1 -20 4 -21 10
-1 11 3 109 5 156 1 14 -1 40 -5 58 -6 29 -5 33 9 27 14 -5 15 -4 5 6 -27 27
-14 84 19 88 4 1 10 -4 13 -9z m-130 -142 c-1 -15 -9 -23 -28 -25 -31 -4 -34
3 -9 28 24 24 39 23 37 -3z m-65 -48 c0 -5 -10 -10 -22 -10 -21 -1 -21 -2 -5
-11 9 -6 15 -14 12 -19 -3 -5 -1 -11 4 -15 6 -3 7 -13 4 -23 -3 -9 -2 -13 2
-9 5 4 14 -3 21 -15 10 -19 10 -26 -4 -42 -9 -11 -12 -16 -5 -13 6 4 13 4 16
0 2 -5 2 -2 1 5 -4 14 5 15 24 3 11 -6 10 -10 -5 -16 -10 -5 -21 -7 -25 -7 -5
1 -8 -4 -9 -10 0 -7 -7 0 -14 17 -7 16 -10 36 -7 44 3 9 1 12 -6 7 -7 -4 -12
-2 -12 6 0 7 -7 26 -15 41 -20 39 -6 64 43 76 1 1 2 -3 2 -9z m140 -150 c0 -5
-4 -10 -10 -10 -5 0 -10 5 -10 10 0 6 5 10 10 10 6 0 10 -4 10 -10z m-20 -45
c0 -14 5 -25 10 -25 6 0 10 11 10 25 0 16 6 25 16 25 32 0 92 -43 113 -80 28
-51 27 -70 -4 -70 -14 0 -25 -4 -25 -10 0 -5 11 -10 25 -10 32 0 33 -25 2 -71
-26 -39 -81 -79 -108 -79 -14 0 -19 7 -19 25 0 14 -4 25 -10 25 -5 0 -10 -12
-10 -26 0 -23 -3 -25 -27 -20 -54 13 -106 65 -119 119 -5 24 -3 27 20 27 14 0
26 5 26 10 0 6 -11 10 -25 10 -29 0 -32 17 -11 58 37 71 136 120 136 67z"/>
<path d="M3080 2656 c0 -2 8 -10 18 -17 15 -13 16 -12 3 4 -13 16 -21 21 -21
13z"/>
<path d="M3333 2637 c-1 -11 -1 -18 0 -16 2 2 8 11 15 20 9 12 9 16 -1 16 -7
0 -14 -9 -14 -20z"/>
<path d="M3030 2258 c-58 -36 -68 -47 -97 -106 -17 -37 -31 -68 -30 -69 1 0
31 16 67 37 58 34 68 45 98 105 18 37 32 68 30 70 -2 1 -32 -16 -68 -37z m-7
-74 c-8 -21 -43 -18 -43 5 0 11 6 21 13 24 17 6 37 -12 30 -29z m-48 -35 c-4
-5 -12 -9 -18 -8 -9 0 -8 2 1 6 6 2 9 10 6 15 -4 7 -2 8 5 4 6 -4 9 -12 6 -17z"/>
<path d="M2905 2271 c-3 -5 -2 -12 3 -15 5 -3 9 1 9 9 0 17 -3 19 -12 6z"/>
<path d="M3530 2533 l0 -213 45 0 45 0 0 64 0 63 73 5 c95 6 133 27 159 85 31
71 12 140 -49 180 -21 14 -55 19 -150 23 l-123 5 0 -212z m65 178 c-9 -16 15
-23 32 -9 22 18 75 17 91 -2 8 -8 11 -10 8 -3 -4 6 -2 14 3 17 5 3 11 -1 15
-9 3 -8 2 -15 -2 -16 -4 0 -21 -2 -39 -5 -18 -2 -35 1 -38 6 -4 7 -14 6 -28
-2 -24 -12 -47 -40 -42 -49 2 -3 5 -27 6 -55 2 -46 29 -101 42 -88 3 4 26 7
51 8 71 3 122 67 94 120 -7 13 -7 17 2 11 8 -5 7 0 -2 14 -7 12 -21 21 -32 21
-14 0 -16 3 -7 13 6 8 8 17 4 20 -3 4 1 7 9 7 19 0 40 -24 30 -35 -4 -5 -2 -5
4 -2 32 19 59 -107 29 -137 -8 -7 -11 -17 -7 -21 4 -4 2 -5 -3 -4 -6 2 -20 -3
-33 -10 -13 -7 -40 -14 -60 -17 -80 -9 -92 -12 -106 -23 -8 -7 -16 -34 -18
-59 -3 -39 -6 -47 -23 -47 -19 0 -20 7 -21 175 0 115 3 178 10 182 16 11 38
10 31 -1z m30 -1 c-3 -5 -11 -10 -16 -10 -6 0 -7 5 -4 10 3 6 11 10 16 10 6 0
7 -4 4 -10z m127 -67 c24 -21 23 -68 -2 -93 -15 -15 -33 -20 -75 -20 l-55 0 0
65 0 65 57 0 c38 0 62 -5 75 -17z"/>
<path d="M3810 2611 c13 -10 13 -12 0 -22 -13 -9 -13 -10 0 -6 8 2 15 10 15
17 0 7 -7 15 -15 17 -13 4 -13 3 0 -6z"/>
<path d="M3806 2562 c-3 -5 1 -9 9 -9 8 0 15 4 15 9 0 4 -4 8 -9 8 -6 0 -12
-4 -15 -8z"/>
<path d="M1695 2613 c-71 -26 -131 -47 -133 -48 -3 -3 19 -65 24 -65 3 0 20 6
38 14 l34 14 17 -44 c33 -86 118 -113 176 -55 16 16 29 40 29 52 0 27 -43 179
-50 178 -3 0 -63 -21 -135 -46z m120 -1 c-2 -3 2 -11 10 -19 8 -8 15 -20 15
-26 -1 -8 -5 -6 -13 3 -7 8 -20 23 -30 32 -16 16 -16 17 2 15 11 -1 18 -3 16
-5z m-53 -9 c-6 -2 -10 -9 -7 -14 4 -5 -1 -6 -9 -3 -10 4 -18 -1 -22 -11 -4
-9 -12 -14 -19 -11 -8 3 -10 -4 -7 -20 2 -14 0 -24 -7 -24 -6 0 -11 4 -11 10
0 15 -49 23 -64 11 -9 -8 -16 -8 -20 -2 -4 5 20 18 53 27 33 10 57 22 54 28
-3 5 -1 6 5 2 7 -4 20 -2 29 3 10 6 23 10 28 10 6 0 4 -3 -3 -6z m52 -79 c5
-23 2 -36 -9 -48 -30 -29 -57 -18 -79 34 l-14 35 41 16 c46 17 50 14 61 -37z
m36 -45 c0 -13 -4 -18 -12 -13 -7 5 -9 2 -5 -9 6 -17 -10 -26 -55 -32 -16 -2
-28 1 -28 7 0 6 10 8 23 6 24 -5 37 4 56 40 15 27 21 28 21 1z m-127 -22 c-4
-7 0 -8 13 -3 14 5 16 4 7 -5 -14 -14 -29 -6 -36 21 -4 17 -3 19 9 9 7 -6 11
-16 7 -22z"/>
<path d="M4133 2620 c-12 -5 -29 -22 -37 -39 -21 -39 -59 -142 -54 -145 1 -1
57 -24 123 -50 66 -27 125 -50 131 -53 6 -2 14 4 17 14 2 10 8 25 11 34 5 12
-3 19 -34 29 -22 7 -40 14 -40 15 0 2 7 19 15 38 25 59 19 95 -19 133 -35 35
-68 42 -113 24z m114 -63 l4 -27 -24 23 c-13 12 -22 25 -20 30 2 4 -3 7 -11 7
-9 0 -16 5 -16 10 0 6 12 5 32 -3 22 -9 32 -21 35 -40z m-116 10 c-13 -12 -20
-15 -16 -7 14 26 28 41 33 35 3 -3 -5 -16 -17 -28z m79 -22 c13 -16 6 -80 -9
-90 -12 -7 -81 23 -81 36 0 5 7 23 15 39 17 33 54 40 75 15z m35 -72 c-5 -10
-7 -21 -7 -25 1 -5 -4 -8 -10 -8 -7 0 -5 -5 5 -11 9 -5 17 -17 17 -25 0 -8 4
-13 8 -10 4 2 14 1 21 -3 9 -6 7 -10 -8 -14 -12 -3 -21 -1 -21 5 0 6 -6 8 -14
5 -10 -4 -13 0 -11 14 3 17 1 18 -9 10 -14 -12 -63 3 -77 23 -4 5 -12 5 -18 2
-6 -4 -11 -3 -11 2 0 6 -10 8 -22 6 -13 -2 -17 -2 -10 2 6 3 10 10 7 14 -3 5
-1 11 5 15 6 3 13 0 16 -9 3 -8 19 -18 35 -21 16 -4 29 -10 29 -14 0 -4 9 -7
19 -7 11 0 18 3 16 7 -3 3 4 14 15 24 11 10 20 25 20 33 0 9 3 13 6 9 4 -3 3
-14 -1 -24z"/>
<path d="M4296 2587 c3 -10 9 -15 12 -12 3 3 0 11 -7 18 -10 9 -11 8 -5 -6z"/>
<path d="M1810 2329 c-63 -38 -119 -70 -124 -71 -5 -2 -1 -18 8 -36 l16 -32
39 24 38 25 13 -23 c10 -20 9 -31 -9 -72 -21 -47 -21 -49 -4 -81 10 -18 20
-33 24 -33 3 0 14 24 24 54 l19 55 46 -6 c39 -4 50 -2 73 18 46 40 45 81 -5
170 l-43 76 -115 -68z m122 3 c-2 -7 -12 -12 -21 -11 -33 3 -52 -1 -46 -10 3
-6 -4 -8 -16 -6 -15 3 -19 0 -15 -10 3 -10 0 -12 -11 -8 -11 4 -14 2 -9 -5 4
-7 2 -12 -3 -12 -6 0 -11 -5 -11 -11 0 -5 4 -8 8 -5 4 2 13 -4 20 -14 9 -14 9
-21 0 -26 -7 -4 -8 -3 -4 4 4 7 -7 18 -25 28 -25 12 -33 13 -40 3 -4 -7 -17
-13 -30 -14 -21 -2 -21 -1 -3 11 10 7 24 18 30 23 7 5 15 7 18 4 3 -4 6 -1 6
6 0 7 4 10 9 7 4 -3 16 3 26 14 10 11 24 20 32 20 7 0 16 6 18 13 3 6 20 12
39 12 23 0 32 -4 28 -13z m-9 -51 c22 -38 22 -68 -2 -81 -27 -14 -27 -14 -57
26 l-27 35 29 24 c16 14 31 24 34 25 3 0 13 -13 23 -29z m60 -75 c-5 -23 -43
-59 -43 -40 0 3 -6 1 -13 -5 -14 -11 -27 -5 -27 13 0 7 3 6 8 -1 6 -9 15 -6
35 11 15 13 24 26 20 30 -3 3 0 6 7 6 11 0 11 3 2 12 -7 7 -12 16 -12 21 0 5
6 2 14 -6 8 -8 12 -24 9 -41z m-93 -43 c0 -2 -4 -2 -9 2 -6 3 -26 -11 -45 -30
-20 -20 -36 -31 -36 -26 0 5 6 16 13 23 8 7 12 19 9 27 -3 9 0 11 8 6 9 -5 11
-4 6 3 -14 23 4 32 30 16 13 -9 24 -18 24 -21z"/>
<path d="M3993 2345 l-21 -32 39 -69 c21 -38 39 -73 39 -77 0 -4 -15 -6 -32
-3 -124 19 -132 18 -152 -15 -10 -17 -16 -31 -14 -33 1 -1 55 -39 118 -85 63
-46 116 -79 117 -74 2 6 10 18 17 29 12 16 9 21 -28 49 -69 51 -96 66 -109 59
-9 -5 -9 -4 -1 6 9 9 29 10 81 3 96 -12 104 -3 61 79 -18 35 -34 67 -36 71 -2
5 27 -11 64 -36 38 -24 74 -46 79 -49 6 -4 18 7 27 22 l17 29 -37 23 c-20 12
-76 47 -123 78 l-85 57 -21 -32z m63 -30 c24 -10 33 -19 28 -27 -5 -9 -1 -8
12 2 10 8 15 10 11 5 -4 -5 3 -15 15 -23 22 -13 22 -13 -7 -7 -60 13 -67 10
-54 -22 6 -16 10 -29 10 -30 -4 -13 1 -23 7 -19 5 3 9 -1 9 -9 0 -37 -25 -3
-33 44 -2 8 -8 17 -15 21 -6 5 -9 16 -5 25 4 12 2 16 -6 12 -8 -3 -14 5 -14
19 -2 28 -3 28 42 9z m144 -90 c4 3 10 -1 13 -8 3 -8 -1 -14 -9 -14 -8 0 -14
4 -14 7 0 4 -14 13 -31 20 -21 9 -27 15 -17 21 8 5 19 0 31 -12 10 -11 22 -17
27 -14z m-242 -74 c7 -1 10 -5 7 -11 -4 -6 5 -8 22 -6 15 2 21 1 13 -1 -8 -3
-23 -12 -32 -20 -9 -8 -23 -12 -30 -8 -7 3 -4 -1 6 -9 11 -9 23 -16 28 -16 4
0 8 -5 8 -10 0 -13 -22 -1 -65 33 -25 21 -27 27 -17 40 7 8 21 14 30 12 9 -2
23 -4 30 -4z m136 1 c2 -4 1 -14 -3 -21 -7 -11 -11 -9 -20 5 -6 11 -11 13 -11
7 0 -7 -5 -13 -11 -13 -8 0 -8 5 1 15 13 16 36 20 44 7z m-74 -114 c0 -5 4 -7
9 -4 4 3 18 -5 31 -19 21 -22 21 -23 2 -18 -11 2 -33 18 -48 35 -19 19 -23 27
-11 23 9 -4 17 -11 17 -17z"/>
<path d="M3925 2140 c-4 -6 -11 -8 -16 -5 -5 4 -6 -2 -2 -11 4 -10 8 -13 10
-7 3 7 10 11 16 9 7 -1 9 -1 4 1 -4 3 -5 9 -1 14 3 5 3 9 0 9 -3 0 -8 -5 -11
-10z"/>
<path d="M2115 2360 c3 -5 8 -10 11 -10 2 0 4 5 4 10 0 6 -5 10 -11 10 -5 0
-7 -4 -4 -10z"/>
<path d="M2361 2156 c-19 -23 0 -48 89 -115 285 -214 638 -249 948 -92 126 64
242 156 242 191 0 40 -28 33 -95 -22 -84 -70 -216 -140 -330 -173 -115 -35
-290 -39 -400 -11 -133 35 -327 138 -394 210 -28 29 -43 32 -60 12z m137 -104
c20 -12 29 -23 23 -26 -6 -4 -11 -3 -11 2 0 4 -17 18 -37 30 -21 11 -44 30
-52 41 -8 11 -18 18 -21 16 -4 -2 -7 3 -7 11 0 10 13 3 36 -20 20 -19 51 -43
69 -54z m1095 64 c-10 -13 -20 -22 -22 -20 -2 2 -11 -1 -20 -8 -9 -6 -1 3 18
21 40 37 48 40 24 7z m-79 -72 c-16 -13 -35 -21 -43 -19 -8 4 -11 0 -7 -10 3
-8 2 -14 -2 -13 -12 3 -57 -14 -63 -24 -4 -7 -9 -6 -13 0 -3 6 9 15 28 22 19
6 37 18 40 26 3 8 10 13 15 10 5 -4 16 1 24 9 9 8 21 15 27 15 6 0 8 5 4 12
-5 7 -3 8 6 3 9 -5 4 -14 -16 -31z m-899 -67 c17 -9 27 -16 23 -17 -15 0 -64
25 -79 42 -9 10 -20 14 -24 10 -5 -4 -5 -1 -1 6 6 11 13 9 30 -6 11 -11 35
-27 51 -35z m761 -9 c4 -6 3 -8 -4 -4 -6 3 -13 2 -17 -4 -3 -5 -14 -10 -23
-10 -15 0 -5 9 35 29 1 1 5 -4 9 -11z m-676 -29 c0 -5 -4 -9 -10 -9 -5 0 -10
4 -10 10 0 5 -8 7 -17 4 -14 -5 -15 -4 -4 4 15 11 41 5 41 -9z m35 -17 c-3 -3
-11 0 -18 7 -9 10 -8 11 6 5 10 -3 15 -9 12 -12z m540 8 c-3 -5 -12 -10 -18
-10 -7 0 -6 4 3 10 19 12 23 12 15 0z m-475 -26 c0 -2 -9 0 -20 6 -11 6 -20
13 -20 16 0 2 9 0 20 -6 11 -6 20 -13 20 -16z m69 -10 c2 -2 -10 -4 -27 -4
-18 0 -32 5 -32 10 0 9 47 4 59 -6z m31 2 c0 -3 -4 -8 -10 -11 -5 -3 -10 -1
-10 4 0 6 5 11 10 11 6 0 10 -2 10 -4z m245 -6 c-11 -5 -29 -9 -40 -9 -17 -1
-17 1 -5 9 8 5 26 9 40 9 23 0 23 -1 5 -9z"/>
<path d="M2010 2103 c-31 -11 -81 -69 -91 -105 -28 -107 81 -218 188 -189 104
28 145 149 80 235 -41 53 -120 80 -177 59z m45 -23 c4 -6 -1 -7 -11 -3 -12 4
-15 3 -10 -5 4 -7 3 -12 -2 -12 -5 0 -22 -11 -38 -25 -15 -13 -31 -22 -34 -18
-3 3 1 8 8 10 6 3 10 9 7 13 -3 5 4 14 15 20 11 6 20 7 20 3 0 -4 5 0 11 10
11 19 25 22 34 7z m99 -33 c3 3 6 -1 6 -10 0 -9 4 -17 9 -17 9 0 27 -57 23
-73 -1 -4 -4 -15 -6 -25 -6 -31 -18 -52 -27 -46 -5 3 0 22 10 42 17 32 17 42
6 68 -7 16 -26 42 -43 56 -17 14 -28 28 -25 32 3 3 14 -3 23 -14 9 -11 20 -17
24 -13z m-33 -26 c39 -40 39 -82 0 -122 -38 -37 -82 -39 -116 -4 -45 44 -26
120 35 144 39 15 50 13 81 -18z m-165 -50 c-1 -17 -5 -26 -9 -21 -5 4 -6 17
-2 29 9 29 12 26 11 -8z m3 -55 c7 -8 8 -17 3 -20 -6 -3 -12 3 -15 14 -6 24
-4 25 12 6z m95 -71 c20 -2 38 0 41 6 4 5 10 7 15 4 4 -3 11 2 14 11 6 15 26
11 26 -5 0 -11 -71 -32 -100 -29 -28 3 -62 25 -75 48 -4 8 3 4 18 -9 14 -12
41 -25 61 -26z"/>
<path d="M4136 2072 c-3 -5 1 -9 9 -9 8 0 12 4 9 9 -3 4 -7 8 -9 8 -2 0 -6 -4
-9 -8z"/>
<path d="M3717 1996 l-26 -21 41 -145 c23 -80 43 -147 45 -149 2 -3 15 6 28
20 20 20 23 29 17 54 -8 28 -5 33 41 69 48 39 51 39 77 24 25 -14 28 -14 54 9
16 13 27 26 25 27 -2 2 -65 33 -140 68 l-136 65 -26 -21z m68 -25 c6 -1 2 -6
-9 -12 -14 -9 -20 -8 -27 2 -5 8 -9 11 -9 7 0 -3 -3 -15 -6 -25 -5 -15 -4 -15
5 -3 8 12 10 11 8 -8 0 -12 -4 -22 -8 -22 -10 0 -20 30 -13 41 3 5 0 9 -6 9
-6 0 -9 4 -6 9 5 7 39 8 71 2z m61 -39 c1 -7 0 -8 -3 -2 -2 5 -9 8 -14 4 -5
-3 -9 0 -9 6 0 15 23 7 26 -8z m-33 -17 c20 -10 37 -22 37 -25 0 -3 -12 -15
-28 -27 l-27 -20 -17 49 c-9 27 -13 48 -10 46 4 -2 24 -12 45 -23z m67 6 c0
-6 -4 -13 -10 -16 -5 -3 -10 1 -10 9 0 9 5 16 10 16 6 0 10 -4 10 -9z m95 -49
c3 -9 0 -10 -14 -3 -10 6 -22 7 -26 3 -5 -4 -5 -1 -1 6 5 8 1 11 -11 9 -18 -4
-50 -16 -67 -25 -5 -3 1 9 14 25 l22 31 39 -17 c21 -9 41 -22 44 -29z m-225
13 c0 -3 6 -13 15 -22 9 -8 14 -21 11 -28 -6 -17 37 -13 61 5 10 8 6 2 -9 -13
-15 -15 -32 -27 -38 -27 -7 0 -8 -6 0 -19 12 -23 13 -31 2 -31 -10 0 -34 79
-27 90 3 4 1 10 -5 12 -6 2 -12 14 -15 27 -2 13 -2 21 1 18 3 -3 5 -8 4 -12z"/>
<path d="M4623 1945 c0 -8 4 -12 9 -9 5 3 6 10 3 15 -9 13 -12 11 -12 -6z"/>
<path d="M2352 1844 c-74 -125 -82 -135 -105 -132 -12 2 -26 13 -32 26 -10 22
-26 26 -57 14 -17 -7 -17 -9 0 -41 10 -20 33 -43 54 -54 32 -16 43 -17 73 -7
33 11 58 44 149 197 4 8 -5 18 -24 28 l-30 16 -28 -47z m48 -3 c0 -4 -9 -13
-19 -20 -11 -8 -17 -20 -14 -28 3 -7 0 -13 -6 -13 -6 0 -10 -3 -9 -7 3 -8 -29
-59 -49 -80 -17 -18 -28 -16 -13 2 7 8 9 15 4 15 -5 1 1 9 13 19 12 10 19 22
15 26 -4 5 -2 5 5 2 7 -5 14 4 18 22 3 16 13 35 21 41 7 7 12 16 9 19 -2 4 2
8 10 8 8 0 15 -3 15 -6z m-205 -110 c3 -5 2 -12 -3 -15 -5 -3 -9 1 -9 9 0 17
3 19 12 6z m25 -25 c0 -2 -7 -7 -16 -10 -8 -3 -12 -2 -9 4 6 10 25 14 25 6z
m20 -20 c0 -2 -7 -7 -16 -10 -8 -3 -12 -2 -9 4 6 10 25 14 25 6z m30 -6 c0 -5
-4 -10 -10 -10 -5 0 -10 5 -10 10 0 6 5 10 10 10 6 0 10 -4 10 -10z"/>
<path d="M3480 1838 c-54 -37 -74 -72 -74 -128 0 -97 94 -168 185 -141 46 14
109 69 109 95 0 9 -12 21 -26 26 -33 13 -34 13 -34 -3 0 -26 -45 -57 -82 -57
-28 0 -42 7 -62 31 -14 17 -26 41 -26 54 0 13 12 37 26 54 21 25 33 31 65 31
27 0 39 4 39 14 0 8 3 21 6 30 10 27 -85 22 -126 -6z m-10 -58 c-6 -4 -11 -9
-10 -11 1 -2 -4 -17 -10 -33 -6 -16 -8 -37 -4 -45 4 -9 8 -20 8 -24 1 -4 7
-11 14 -16 10 -6 10 -10 -3 -21 -13 -11 -14 -10 -9 5 6 14 4 16 -6 10 -8 -5
-11 -4 -6 3 3 6 2 13 -4 17 -18 11 -12 83 8 94 9 6 11 11 5 11 -9 0 -7 6 5 18
9 10 19 14 21 9 2 -5 -2 -13 -9 -17z m185 -140 c3 -5 -1 -10 -10 -10 -9 0 -13
5 -10 10 3 6 8 10 10 10 2 0 7 -4 10 -10z m-38 -25 c0 -8 -4 -12 -9 -9 -5 3
-6 10 -3 15 9 13 12 11 12 -6z m-97 -15 c0 -5 -7 -7 -15 -4 -8 4 -15 8 -15 10
0 2 7 4 15 4 8 0 15 -4 15 -10z"/>
<path d="M2479 1802 c-6 -15 -29 -74 -53 -132 l-42 -105 105 -42 c57 -24 106
-42 107 -40 1 1 5 14 9 28 6 25 3 28 -62 52 -59 22 -68 28 -65 48 1 13 5 25 7
28 3 3 33 -5 67 -17 33 -12 62 -21 64 -20 1 2 5 15 9 29 6 24 3 26 -55 44 -53
16 -60 21 -54 39 11 36 18 37 84 11 35 -14 64 -24 65 -22 1 1 7 12 14 24 12
24 8 29 -37 43 -15 5 -55 20 -90 34 l-63 25 -10 -27z m56 -22 c-4 -6 -11 -7
-17 -4 -6 4 -8 3 -5 -3 4 -5 -2 -19 -11 -29 -20 -22 -18 -53 6 -73 16 -13 16
-13 0 -8 -10 3 -24 0 -32 -9 -22 -22 -31 2 -11 32 9 13 14 28 11 32 -2 4 2 22
9 40 10 22 21 32 35 32 12 0 18 -5 15 -10z m-83 -184 c-4 -38 -16 -47 -26 -20
-9 22 -8 26 6 18 6 -4 8 -3 5 4 -8 12 2 44 12 38 4 -3 5 -21 3 -40z"/>
<path d="M1454 1780 c0 -13 4 -16 10 -10 7 7 7 13 0 20 -6 6 -10 3 -10 -10z"/>
<path d="M3145 1729 c-161 -20 -152 -16 -147 -49 4 -28 6 -29 47 -23 l42 5 13
-115 12 -116 32 6 c17 3 32 7 33 8 3 2 -15 159 -23 196 -5 24 -2 27 36 32 23
3 44 7 46 10 7 6 -7 57 -15 56 -3 -1 -37 -5 -76 -10z m2 -38 c-10 -4 -18 -10
-18 -14 3 -24 0 -37 -9 -37 -5 0 -7 7 -4 15 4 11 -5 16 -38 22 l-43 8 45 6
c25 3 54 6 65 7 18 1 18 0 2 -7z m-18 -75 c7 -8 8 -17 3 -20 -6 -3 -12 3 -15
14 -6 24 -4 25 12 6z m9 -76 c-1 -22 -3 -38 -5 -36 -7 6 -11 60 -6 69 9 15 13
6 11 -33z"/>
<path d="M2796 1720 c-61 -19 -96 -73 -96 -151 0 -46 4 -55 38 -89 54 -55 142
-66 196 -25 18 13 18 16 2 40 -16 24 -18 25 -39 10 -28 -19 -67 -19 -95 1 -56
39 -47 124 15 151 32 13 38 12 74 -5 38 -19 41 -19 61 -3 27 22 18 37 -36 62
-44 20 -74 22 -120 9z m38 -25 c-22 -17 -48 -20 -39 -5 4 6 10 8 15 5 5 -3 11
-1 15 5 3 5 11 10 18 10 6 0 2 -7 -9 -15z m70 -11 c9 -9 16 -11 16 -4 0 6 5 8
11 4 8 -4 7 -9 -2 -14 -12 -8 -49 9 -49 22 0 12 7 10 24 -8z m-133 -36 c-13
-10 -20 -18 -16 -18 4 0 3 -6 -2 -12 -6 -7 -9 -23 -8 -35 1 -16 -2 -20 -10
-13 -10 8 -11 24 -6 74 1 5 4 6 8 3 3 -4 13 2 20 13 8 11 19 17 25 14 7 -5 3
-14 -11 -26z m14 -161 c27 -28 28 -29 5 -17 -26 14 -56 40 -45 40 3 0 -2 12
-11 28 l-16 27 19 -24 c10 -13 32 -37 48 -54z m105 -23 c0 -8 -19 -13 -24 -6
-3 5 1 9 9 9 8 0 15 -2 15 -3z"/>
<path d="M4459 1713 c-13 -16 -12 -17 4 -4 9 7 17 15 17 17 0 8 -8 3 -21 -13z"/>
<path d="M1600 1626 c0 -2 8 -10 18 -17 15 -13 16 -12 3 4 -13 16 -21 21 -21
13z"/>
<path d="M4326 1612 c-3 -5 1 -9 9 -9 8 0 12 4 9 9 -3 4 -7 8 -9 8 -2 0 -6 -4
-9 -8z"/>
<path d="M4270 1565 c0 -7 30 -13 34 -7 3 4 -4 9 -15 9 -10 1 -19 0 -19 -2z"/>
</g>
</svg>
